<?xml version="1.0" encoding="UTF-8" standalone="no"?>
<!DOCTYPE svg PUBLIC "-//W3C//DTD SVG 1.1//EN" "http://www.w3.org/Graphics/SVG/1.1/DTD/svg11.dtd">
<svg width="100%" height="100%" viewBox="0 0 1536 709" version="1.1" xmlns="http://www.w3.org/2000/svg" xmlns:xlink="http://www.w3.org/1999/xlink" xml:space="preserve" xmlns:serif="http://www.serif.com/" style="fill-rule:evenodd;clip-rule:evenodd;stroke-linejoin:round;stroke-miterlimit:2;">
    <g id="Layer-1" serif:id="Layer 1" transform="matrix(4.16667,0,0,4.16667,0,0)">
        <g transform="matrix(1,0,0,1,341.171,96.2342)">
            <path d="M0,-4.832L-1.883,-4.832L-1.883,-5.512L2.7,-5.512L2.7,-4.832L0.809,-4.832L0.809,0.68L0,0.68L0,-4.832Z" style="fill:rgb(96,96,97);fill-rule:nonzero;"/>
        </g>
        <g transform="matrix(1,0,0,1,349.776,93.4412)">
            <path d="M0,0.754C-0.046,-0.109 -0.102,-1.147 -0.092,-1.919L-0.12,-1.919C-0.331,-1.193 -0.588,-0.413 -0.9,0.433L-1.994,3.436L-2.6,3.436L-3.602,0.487C-3.896,-0.386 -4.144,-1.184 -4.317,-1.919L-4.336,-1.919C-4.354,-1.147 -4.4,-0.109 -4.455,0.818L-4.621,3.473L-5.383,3.473L-4.951,-2.719L-3.932,-2.719L-2.876,0.276C-2.618,1.038 -2.407,1.718 -2.251,2.361L-2.224,2.361C-2.067,1.736 -1.847,1.057 -1.571,0.276L-0.469,-2.719L0.551,-2.719L0.937,3.473L0.156,3.473L0,0.754Z" style="fill:rgb(96,96,97);fill-rule:nonzero;"/>
        </g>
        <g transform="matrix(-0.706571,0.707642,0.707642,0.706571,143.795,81.1717)">
            <rect x="-17.999" y="-7.463" width="8.403" height="30.607" style="fill:rgb(68,68,69);"/>
        </g>
        <g transform="matrix(-0.706631,0.707583,0.707583,0.706631,151.749,73.2056)">
            <rect x="-18.001" y="-7.463" width="8.407" height="30.604" style="fill:rgb(68,68,69);"/>
        </g>
        <g transform="matrix(-0.70675,0.707464,0.707464,0.70675,159.525,65.4115)">
            <rect x="-18.001" y="-7.459" width="8.409" height="30.605" style="fill:rgb(68,68,69);"/>
        </g>
        <g transform="matrix(0.707583,0.706631,0.706631,-0.707583,214.12,48.6907)">
            <rect x="-12.043" y="-29.1" width="8.406" height="30.606" style="fill:rgb(209,36,39);"/>
        </g>
        <g transform="matrix(0.707761,0.706452,0.706452,-0.707761,206.152,40.7344)">
            <rect x="-12.037" y="-29.097" width="8.397" height="30.604" style="fill:rgb(209,36,39);"/>
        </g>
        <g transform="matrix(0.707345,0.706869,0.706869,-0.707345,198.368,32.9662)">
            <rect x="-12.049" y="-29.101" width="8.413" height="30.606" style="fill:rgb(209,36,39);"/>
        </g>
        <g transform="matrix(1,0,0,1,28.126,117.45)">
            <path d="M0,-7.796L5.404,-7.796L5.404,-7.945C5.471,-8.676 5.504,-9.191 5.504,-9.489C5.504,-10.9 5.275,-11.942 4.819,-12.614C4.362,-13.287 3.652,-13.623 2.69,-13.623C1.71,-13.623 1.009,-13.295 0.585,-12.64C0.162,-11.984 -0.05,-10.9 -0.05,-9.39C-0.05,-8.975 -0.046,-8.65 -0.037,-8.418C-0.029,-8.186 -0.017,-7.979 0,-7.796M5.205,0.397L12.751,0.397L12.751,1.12C12.751,4.49 11.871,7.026 10.111,8.728C8.351,10.431 5.728,11.281 2.242,11.281C0.481,11.281 -1.112,11.032 -2.54,10.534C-3.968,10.035 -5.08,9.347 -5.877,8.467C-6.773,7.454 -7.413,6.109 -7.795,4.433C-8.177,2.756 -8.368,0.074 -8.368,-3.612C-8.368,-7.68 -8.172,-10.519 -7.782,-12.129C-7.393,-13.739 -6.724,-15.067 -5.777,-16.113C-4.865,-17.093 -3.707,-17.832 -2.303,-18.33C-0.9,-18.828 0.73,-19.077 2.59,-19.077C4.483,-19.077 6.118,-18.808 7.497,-18.268C8.874,-17.729 9.995,-16.927 10.858,-15.864C11.589,-14.968 12.112,-13.898 12.427,-12.652C12.743,-11.407 12.9,-9.281 12.9,-6.276L12.9,-2.815L-0.199,-2.815C-0.216,-2.732 -0.224,-2.624 -0.224,-2.491C-0.291,-1.279 -0.324,-0.433 -0.324,0.049C-0.324,2.075 -0.108,3.482 0.324,4.27C0.755,5.058 1.495,5.453 2.541,5.453C3.453,5.453 4.143,5.15 4.607,4.544C5.072,3.938 5.305,3.021 5.305,1.792C5.305,1.543 5.28,1.161 5.23,0.646C5.213,0.547 5.205,0.464 5.205,0.397" style="fill:rgb(68,68,69);fill-rule:nonzero;"/>
        </g>
        <g transform="matrix(1,0,0,1,57.7632,112.767)">
            <path d="M0,1.321C-2.076,1.902 -3.59,2.624 -4.545,3.487C-5.5,4.35 -5.977,5.429 -5.977,6.724C-5.977,7.638 -5.74,8.369 -5.267,8.917C-4.794,9.465 -4.159,9.738 -3.362,9.738C-2.183,9.738 -1.328,9.34 -0.797,8.543C-0.266,7.746 0,6.41 0,4.533L0,1.321ZM1.021,15.192L0.548,12.552C-0.465,13.615 -1.573,14.416 -2.777,14.956C-3.98,15.495 -5.288,15.765 -6.699,15.765C-8.957,15.765 -10.746,15.035 -12.066,13.573C-13.386,12.113 -14.046,10.136 -14.046,7.646C-14.046,5.471 -13.485,3.678 -12.365,2.267C-11.244,0.856 -9.405,-0.365 -6.849,-1.394C-6.234,-1.626 -5.404,-1.933 -4.358,-2.316C-1.353,-3.411 0.149,-4.648 0.149,-6.027C0.149,-6.873 -0.066,-7.516 -0.498,-7.956C-0.93,-8.396 -1.553,-8.617 -2.366,-8.617C-3.346,-8.617 -4.072,-8.322 -4.545,-7.732C-5.018,-7.143 -5.255,-6.234 -5.255,-5.005L-5.255,-4.806L-13.324,-4.806C-13.324,-8.06 -12.419,-10.48 -10.609,-12.066C-8.8,-13.651 -6.052,-14.444 -2.366,-14.444C-0.706,-14.444 0.776,-14.29 2.08,-13.983C3.383,-13.676 4.474,-13.232 5.354,-12.651C6.483,-11.887 7.276,-10.965 7.733,-9.886C8.189,-8.807 8.417,-6.839 8.417,-3.984L8.417,7.123C8.417,9.382 8.496,11.104 8.654,12.291C8.812,13.478 9.073,14.445 9.439,15.192L1.021,15.192Z" style="fill:rgb(68,68,69);fill-rule:nonzero;"/>
        </g>
        <g transform="matrix(1,0,0,1,68.7222,108.285)">
            <path d="M0,10.534L7.197,10.558C7.28,12.053 7.571,13.145 8.069,13.834C8.567,14.523 9.314,14.867 10.311,14.867C11.107,14.867 11.763,14.631 12.278,14.157C12.792,13.684 13.05,13.074 13.05,12.327C13.05,11.68 12.871,11.144 12.514,10.721C12.157,10.298 11.365,9.796 10.136,9.214C9.87,9.081 9.455,8.882 8.891,8.616C5.985,7.271 3.96,6.01 2.814,4.831C2,4.034 1.378,3.104 0.946,2.042C0.515,0.979 0.299,-0.133 0.299,-1.296C0.299,-3.919 1.191,-6.011 2.976,-7.571C4.761,-9.132 7.172,-9.912 10.211,-9.912C13.365,-9.912 15.793,-9.161 17.495,-7.658C19.197,-6.155 20.048,-4.001 20.048,-1.195L20.048,-0.673L13,-0.697C12.966,-2.143 12.747,-3.172 12.34,-3.786C11.933,-4.4 11.273,-4.707 10.36,-4.707C9.546,-4.707 8.899,-4.487 8.417,-4.047C7.936,-3.608 7.695,-3.03 7.695,-2.317C7.695,-1.055 8.899,0.107 11.307,1.17C11.639,1.319 11.896,1.435 12.079,1.518C15.366,2.997 17.565,4.432 18.678,5.827C19.79,7.221 20.347,9.049 20.347,11.305C20.347,14.212 19.45,16.461 17.657,18.055C15.864,19.648 13.307,20.446 9.987,20.446C6.832,20.446 4.379,19.64 2.627,18.03C0.875,16.42 0,14.162 0,11.256L0,10.534Z" style="fill:rgb(68,68,69);fill-rule:nonzero;"/>
        </g>
        <g transform="matrix(1,0,0,1,89.5181,137.646)">
            <path d="M0,-38.502L7.969,-38.502L10.784,-19.948L13.623,-38.502L21.592,-38.502L15.864,-12.028C14.768,-6.948 13.539,-3.673 12.178,-2.204C10.816,-0.734 8.65,0 5.678,0C5.246,0 4.761,-0.024 4.221,-0.074C3.682,-0.124 3.063,-0.199 2.366,-0.299L2.366,-6.325C2.399,-6.325 2.449,-6.317 2.515,-6.301C3.08,-6.251 3.487,-6.226 3.736,-6.226C4.648,-6.226 5.325,-6.397 5.765,-6.736C6.205,-7.077 6.425,-7.605 6.425,-8.317C6.425,-8.766 6.259,-9.754 5.927,-11.281C5.811,-11.813 5.728,-12.219 5.678,-12.502L0,-38.502Z" style="fill:rgb(68,68,69);fill-rule:nonzero;"/>
        </g>
        <g transform="matrix(1,0,0,1,125.53,110.477)">
            <path d="M0,6.151L7.919,6.151C7.919,6.3 7.928,6.496 7.944,6.736C7.961,6.977 7.969,7.156 7.969,7.271C7.969,10.958 7.114,13.709 5.404,15.527C3.694,17.345 1.096,18.255 -2.391,18.255C-6.326,18.255 -9.094,17.137 -10.696,14.905C-12.299,12.672 -13.1,8.733 -13.1,3.088C-13.1,-2.557 -12.294,-6.5 -10.684,-8.742C-9.074,-10.984 -6.309,-12.104 -2.391,-12.104C1.129,-12.104 3.719,-11.203 5.379,-9.402C7.04,-7.6 7.87,-4.79 7.87,-0.972L7.87,-0.474L0.1,-0.474L0.1,-1.295C0.1,-3.022 -0.087,-4.25 -0.46,-4.982C-0.834,-5.712 -1.461,-6.078 -2.341,-6.078C-3.354,-6.078 -4.039,-5.587 -4.396,-4.608C-4.753,-3.628 -4.931,-1.063 -4.931,3.088C-4.931,7.072 -4.753,9.608 -4.396,10.696C-4.039,11.783 -3.371,12.327 -2.391,12.327C-1.544,12.327 -0.926,11.941 -0.535,11.169C-0.146,10.397 0.05,9.172 0.05,7.496C0.05,7.363 0.042,7.147 0.025,6.848C0.008,6.549 0,6.317 0,6.151" style="fill:rgb(209,36,39);fill-rule:nonzero;"/>
        </g>
        <g transform="matrix(1,0,0,1,144.782,113.54)">
            <path d="M0,0.024C0,4.075 0.178,6.611 0.536,7.632C0.893,8.653 1.561,9.164 2.541,9.164C3.52,9.164 4.188,8.674 4.545,7.695C4.902,6.715 5.081,4.158 5.081,0.024C5.081,-4.11 4.902,-6.671 4.545,-7.659C4.188,-8.647 3.52,-9.141 2.541,-9.141C1.561,-9.141 0.893,-8.626 0.536,-7.597C0.178,-6.567 0,-4.027 0,0.024M-8.168,0.024C-8.168,-5.587 -7.363,-9.523 -5.752,-11.781C-4.143,-14.039 -1.378,-15.167 2.541,-15.167C6.458,-15.167 9.223,-14.047 10.833,-11.805C12.444,-9.564 13.249,-5.621 13.249,0.024C13.249,5.636 12.444,9.567 10.833,11.816C9.223,14.066 6.458,15.191 2.541,15.191C-1.395,15.191 -4.163,14.074 -5.765,11.841C-7.368,9.608 -8.168,5.67 -8.168,0.024" style="fill:rgb(209,36,39);fill-rule:nonzero;"/>
        </g>
        <g transform="matrix(1,0,0,1,161.718,98.5719)">
            <path d="M0,29.387L0,0.573L7.123,0.573L7.123,3.985C7.986,2.607 8.949,1.598 10.012,0.959C11.074,0.32 12.328,0 13.772,0C15.083,0 16.217,0.341 17.171,1.021C18.126,1.702 18.861,2.69 19.375,3.985C20.239,2.623 21.214,1.619 22.302,0.971C23.39,0.324 24.639,0 26.05,0C28.191,0 29.756,0.74 30.744,2.217C31.731,3.695 32.227,6.052 32.227,9.289L32.227,29.387L24.53,29.387L24.53,11.132C24.53,9.074 24.386,7.775 24.095,7.235C23.804,6.696 23.302,6.425 22.589,6.425C21.725,6.425 21.048,6.866 20.559,7.745C20.069,8.625 19.824,9.837 19.824,11.381L19.824,29.387L12.278,29.387L12.278,11.132C12.278,9.074 12.137,7.775 11.854,7.235C11.572,6.696 11.066,6.425 10.335,6.425C9.489,6.425 8.82,6.866 8.331,7.745C7.841,8.625 7.596,9.837 7.596,11.381L7.596,29.387L0,29.387Z" style="fill:rgb(209,36,39);fill-rule:nonzero;"/>
        </g>
        <g transform="matrix(1,0,0,1,208.688,114.186)">
            <path d="M0,7.746C1.047,7.746 1.765,7.148 2.154,5.952C2.545,4.757 2.74,1.993 2.74,-2.341C2.74,-4.947 2.549,-6.732 2.167,-7.695C1.785,-8.657 1.129,-9.14 0.199,-9.14C-0.863,-9.14 -1.598,-8.583 -2.004,-7.471C-2.411,-6.358 -2.614,-3.428 -2.614,1.32C-2.614,3.761 -2.42,5.442 -2.029,6.363C-1.64,7.285 -0.963,7.746 0,7.746M-10.459,23.46L-10.459,-15.042L-3.063,-15.042L-3.063,-11.779C-2.315,-13.074 -1.391,-14.054 -0.286,-14.718C0.818,-15.382 2.051,-15.714 3.412,-15.714C4.541,-15.714 5.57,-15.515 6.5,-15.116C7.43,-14.718 8.202,-14.153 8.816,-13.423C9.53,-12.526 10.032,-11.326 10.323,-9.824C10.613,-8.321 10.759,-5.503 10.759,-1.369C10.759,5.189 10.215,9.489 9.128,11.531C8.04,13.573 6.085,14.595 3.263,14.595C2.051,14.595 0.979,14.316 0.05,13.76C-0.88,13.204 -1.718,12.361 -2.465,11.232L-2.465,23.46L-10.459,23.46Z" style="fill:rgb(209,36,39);fill-rule:nonzero;"/>
        </g>
        <g transform="matrix(1,0,0,1,230.53,113.54)">
            <path d="M0,0.024C0,4.075 0.178,6.611 0.535,7.632C0.892,8.653 1.561,9.164 2.54,9.164C3.52,9.164 4.188,8.674 4.545,7.695C4.901,6.715 5.08,4.158 5.08,0.024C5.08,-4.11 4.901,-6.671 4.545,-7.659C4.188,-8.647 3.52,-9.141 2.54,-9.141C1.561,-9.141 0.892,-8.626 0.535,-7.597C0.178,-6.567 0,-4.027 0,0.024M-8.169,0.024C-8.169,-5.587 -7.363,-9.523 -5.753,-11.781C-4.143,-14.039 -1.379,-15.167 2.54,-15.167C6.458,-15.167 9.223,-14.047 10.833,-11.805C12.443,-9.564 13.249,-5.621 13.249,0.024C13.249,5.636 12.443,9.567 10.833,11.816C9.223,14.066 6.458,15.191 2.54,15.191C-1.395,15.191 -4.163,14.074 -5.766,11.841C-7.368,9.608 -8.169,5.67 -8.169,0.024" style="fill:rgb(209,36,39);fill-rule:nonzero;"/>
        </g>
        <g transform="matrix(1,0,0,1,245.723,108.285)">
            <path d="M0,10.534L7.197,10.558C7.279,12.053 7.57,13.145 8.068,13.834C8.566,14.523 9.313,14.867 10.31,14.867C11.106,14.867 11.763,14.631 12.277,14.157C12.792,13.684 13.05,13.074 13.05,12.327C13.05,11.68 12.871,11.144 12.514,10.721C12.156,10.298 11.364,9.796 10.136,9.214C9.87,9.081 9.454,8.882 8.891,8.616C5.984,7.271 3.959,6.01 2.813,4.831C2,4.034 1.378,3.104 0.946,2.042C0.514,0.979 0.299,-0.133 0.299,-1.296C0.299,-3.919 1.19,-6.011 2.976,-7.571C4.76,-9.132 7.172,-9.912 10.21,-9.912C13.364,-9.912 15.793,-9.161 17.495,-7.658C19.196,-6.155 20.048,-4.001 20.048,-1.195L20.048,-0.673L13,-0.697C12.966,-2.143 12.746,-3.172 12.34,-3.786C11.933,-4.4 11.272,-4.707 10.359,-4.707C9.546,-4.707 8.898,-4.487 8.417,-4.047C7.936,-3.608 7.695,-3.03 7.695,-2.317C7.695,-1.055 8.898,0.107 11.306,1.17C11.638,1.319 11.896,1.435 12.078,1.518C15.365,2.997 17.565,4.432 18.678,5.827C19.79,7.221 20.347,9.049 20.347,11.305C20.347,14.212 19.449,16.461 17.656,18.055C15.863,19.648 13.307,20.446 9.986,20.446C6.831,20.446 4.379,19.64 2.627,18.03C0.875,16.42 0,14.162 0,11.256L0,10.534Z" style="fill:rgb(209,36,39);fill-rule:nonzero;"/>
        </g>
        <g transform="matrix(1,0,0,1,0,47.187)">
            <path d="M268.834,51.957L276.828,51.957L276.828,80.771L268.834,80.771L268.834,51.957ZM268.834,42.121L276.828,42.121L276.828,49.095L268.834,49.095L268.834,42.121Z" style="fill:rgb(209,36,39);fill-rule:nonzero;"/>
        </g>
        <g transform="matrix(1,0,0,1,294.237,91.7233)">
            <path d="M0,36.136C-0.98,36.319 -1.835,36.455 -2.565,36.547C-3.296,36.638 -3.919,36.684 -4.434,36.684C-6.027,36.684 -7.385,36.426 -8.505,35.911C-9.626,35.398 -10.452,34.658 -10.983,33.696C-11.332,33.032 -11.577,32.198 -11.718,31.193C-11.859,30.188 -11.93,28.657 -11.93,26.598L-11.93,13.373L-15.042,13.373L-15.042,7.421L-11.93,7.421L-11.93,-0.548L-3.836,-0.548L-3.836,7.421L0,7.421L0,13.373L-3.836,13.373L-3.836,25.128C-3.836,27.636 -3.653,29.18 -3.288,29.761C-2.923,30.342 -2.217,30.632 -1.171,30.632C-0.988,30.632 -0.689,30.608 -0.274,30.558C-0.158,30.541 -0.067,30.532 0,30.532L0,36.136Z" style="fill:rgb(209,36,39);fill-rule:nonzero;"/>
        </g>
        <g transform="matrix(1,0,0,1,304.747,117.45)">
            <path d="M0,-7.796L5.404,-7.796L5.404,-7.945C5.47,-8.676 5.504,-9.191 5.504,-9.489C5.504,-10.9 5.275,-11.942 4.818,-12.614C4.362,-13.287 3.652,-13.623 2.689,-13.623C1.71,-13.623 1.009,-13.295 0.585,-12.64C0.162,-11.984 -0.05,-10.9 -0.05,-9.39C-0.05,-8.975 -0.046,-8.65 -0.038,-8.418C-0.029,-8.186 -0.017,-7.979 0,-7.796M5.205,0.397L12.751,0.397L12.751,1.12C12.751,4.49 11.87,7.026 10.11,8.728C8.351,10.431 5.728,11.281 2.241,11.281C0.481,11.281 -1.112,11.032 -2.54,10.534C-3.969,10.035 -5.081,9.347 -5.878,8.467C-6.774,7.454 -7.413,6.109 -7.795,4.433C-8.178,2.756 -8.368,0.074 -8.368,-3.612C-8.368,-7.68 -8.173,-10.519 -7.783,-12.129C-7.393,-13.739 -6.725,-15.067 -5.778,-16.113C-4.865,-17.093 -3.707,-17.832 -2.304,-18.33C-0.901,-18.828 0.73,-19.077 2.59,-19.077C4.482,-19.077 6.117,-18.808 7.496,-18.268C8.874,-17.729 9.994,-16.927 10.858,-15.864C11.588,-14.968 12.111,-13.898 12.427,-12.652C12.742,-11.407 12.9,-9.281 12.9,-6.276L12.9,-2.815L-0.199,-2.815C-0.216,-2.732 -0.225,-2.624 -0.225,-2.491C-0.291,-1.279 -0.324,-0.433 -0.324,0.049C-0.324,2.075 -0.108,3.482 0.323,4.27C0.755,5.058 1.494,5.453 2.54,5.453C3.453,5.453 4.142,5.15 4.607,4.544C5.071,3.938 5.305,3.021 5.305,1.792C5.305,1.543 5.279,1.161 5.229,0.646C5.213,0.547 5.205,0.464 5.205,0.397" style="fill:rgb(209,36,39);fill-rule:nonzero;"/>
        </g>
        <g transform="matrix(1,0,0,1,319.741,108.285)">
            <path d="M0,10.534L7.197,10.558C7.279,12.053 7.57,13.145 8.068,13.834C8.566,14.523 9.313,14.867 10.31,14.867C11.106,14.867 11.763,14.631 12.277,14.157C12.792,13.684 13.05,13.074 13.05,12.327C13.05,11.68 12.871,11.144 12.514,10.721C12.156,10.298 11.364,9.796 10.136,9.214C9.87,9.081 9.454,8.882 8.891,8.616C5.984,7.271 3.959,6.01 2.813,4.831C2,4.034 1.378,3.104 0.946,2.042C0.514,0.979 0.299,-0.133 0.299,-1.296C0.299,-3.919 1.19,-6.011 2.976,-7.571C4.76,-9.132 7.172,-9.912 10.21,-9.912C13.364,-9.912 15.793,-9.161 17.495,-7.658C19.196,-6.155 20.048,-4.001 20.048,-1.195L20.048,-0.673L13,-0.697C12.966,-2.143 12.746,-3.172 12.34,-3.786C11.933,-4.4 11.272,-4.707 10.359,-4.707C9.546,-4.707 8.898,-4.487 8.417,-4.047C7.936,-3.608 7.695,-3.03 7.695,-2.317C7.695,-1.055 8.898,0.107 11.306,1.17C11.638,1.319 11.896,1.435 12.078,1.518C15.365,2.997 17.565,4.432 18.678,5.827C19.79,7.221 20.347,9.049 20.347,11.305C20.347,14.212 19.449,16.461 17.656,18.055C15.863,19.648 13.307,20.446 9.986,20.446C6.831,20.446 4.379,19.64 2.627,18.03C0.875,16.42 0,14.162 0,11.256L0,10.534Z" style="fill:rgb(209,36,39);fill-rule:nonzero;"/>
        </g>
        <g transform="matrix(1,0,0,1,215.926,137.849)">
            <path d="M0,3.782L1.313,3.782C1.313,3.793 1.311,3.809 1.305,3.832C1.289,3.952 1.28,4.042 1.28,4.102C1.28,4.617 1.427,5.008 1.72,5.276C2.012,5.544 2.438,5.678 2.996,5.678C3.505,5.678 3.905,5.542 4.198,5.267C4.49,4.994 4.637,4.622 4.637,4.151C4.637,3.408 4.065,2.839 2.922,2.444C2.905,2.439 2.895,2.436 2.889,2.436C1.745,2.037 1.004,1.64 0.665,1.246C0.325,0.852 0.156,0.281 0.156,-0.469C0.156,-1.295 0.398,-1.94 0.883,-2.402C1.366,-2.864 2.041,-3.095 2.905,-3.095C3.824,-3.095 4.517,-2.873 4.981,-2.431C5.447,-1.988 5.68,-1.333 5.68,-0.469L5.68,-0.338L4.424,-0.338C4.396,-0.906 4.268,-1.322 4.038,-1.581C3.809,-1.841 3.45,-1.971 2.963,-1.971C2.448,-1.971 2.062,-1.849 1.802,-1.606C1.542,-1.363 1.412,-0.999 1.412,-0.519C1.412,-0.305 1.446,-0.114 1.515,0.056C1.583,0.226 1.683,0.363 1.813,0.467C2.055,0.675 2.533,0.893 3.25,1.123C3.633,1.244 3.929,1.344 4.137,1.427C4.787,1.678 5.253,1.997 5.531,2.383C5.811,2.768 5.95,3.279 5.95,3.914C5.95,4.86 5.678,5.591 5.134,6.105C4.589,6.619 3.813,6.877 2.807,6.877C1.882,6.877 1.184,6.632 0.71,6.141C0.236,5.652 0,4.931 0,3.979L0,3.782Z" style="fill:rgb(68,68,69);fill-rule:nonzero;"/>
        </g>
        <g transform="matrix(1,0,0,1,223.305,131.832)">
            <path d="M0,12.639L0,0L1.329,0L1.329,4.218C1.575,3.803 1.886,3.493 2.261,3.291C2.636,3.089 3.086,2.988 3.61,2.988C4.339,2.988 4.904,3.175 5.31,3.55C5.715,3.924 5.917,4.451 5.917,5.129L5.917,12.639L4.588,12.639L4.588,5.761C4.588,5.203 4.482,4.798 4.271,4.547C4.061,4.295 3.723,4.169 3.258,4.169C2.673,4.169 2.204,4.356 1.854,4.728C1.504,5.1 1.329,5.603 1.329,6.238L1.329,12.639L0,12.639Z" style="fill:rgb(68,68,69);fill-rule:nonzero;"/>
        </g>
        <g transform="matrix(1,0,0,1,234.918,140.089)">
            <path d="M0,-0.715C-0.208,-0.486 -0.668,-0.241 -1.379,0.015C-1.439,0.038 -1.482,0.054 -1.51,0.064C-2.123,0.278 -2.522,0.519 -2.708,0.787C-2.895,1.056 -2.987,1.452 -2.987,1.977C-2.987,2.448 -2.884,2.811 -2.676,3.068C-2.468,3.326 -2.175,3.454 -1.798,3.454C-1.25,3.454 -0.814,3.246 -0.488,2.831C-0.163,2.415 0,1.856 0,1.156L0,-0.715ZM2.093,4.398C1.923,4.426 1.776,4.446 1.653,4.46C1.53,4.473 1.417,4.48 1.313,4.48C0.94,4.48 0.648,4.362 0.435,4.127C0.222,3.892 0.106,3.558 0.09,3.126C-0.112,3.607 -0.405,3.976 -0.788,4.234C-1.171,4.491 -1.625,4.62 -2.15,4.62C-2.834,4.62 -3.366,4.389 -3.747,3.931C-4.127,3.471 -4.317,2.825 -4.317,1.993C-4.317,1.179 -4.141,0.557 -3.788,0.131C-3.435,-0.296 -2.673,-0.706 -1.502,-1.101L-1.478,-1.109C-0.515,-1.432 -0.033,-1.809 -0.033,-2.241L-0.033,-3.111C-0.033,-3.5 -0.144,-3.783 -0.365,-3.961C-0.587,-4.139 -0.941,-4.228 -1.428,-4.228C-1.898,-4.228 -2.249,-4.105 -2.479,-3.859C-2.708,-3.612 -2.823,-3.235 -2.823,-2.726L-2.823,-2.562L-4.063,-2.562C-4.046,-3.525 -3.816,-4.228 -3.373,-4.671C-2.93,-5.113 -2.229,-5.335 -1.272,-5.335C-0.375,-5.335 0.28,-5.132 0.693,-4.724C1.106,-4.317 1.313,-3.672 1.313,-2.791L1.313,2.732C1.313,2.978 1.356,3.155 1.444,3.262C1.532,3.368 1.674,3.422 1.871,3.422C1.909,3.422 1.97,3.413 2.052,3.397C2.063,3.397 2.073,3.394 2.085,3.389L2.093,4.398Z" style="fill:rgb(68,68,69);fill-rule:nonzero;"/>
        </g>
        <g transform="matrix(1,0,0,1,238.028,134.803)">
            <path d="M0,9.668L0,0.222L1.223,0.222L1.223,1.765C1.414,1.212 1.703,0.779 2.089,0.468C2.475,0.156 2.916,0 3.414,0C3.562,0 3.675,0.003 3.755,0.008C3.834,0.014 3.909,0.022 3.98,0.033L3.98,1.444C3.909,1.406 3.831,1.378 3.746,1.358C3.661,1.339 3.567,1.33 3.463,1.33C2.784,1.33 2.257,1.554 1.879,2.003C1.502,2.451 1.313,3.078 1.313,3.882L1.313,9.668L0,9.668Z" style="fill:rgb(68,68,69);fill-rule:nonzero;"/>
        </g>
        <g transform="matrix(1,0,0,1,243.675,140.753)">
            <path d="M0,-2.028L3.209,-2.028L3.209,-2.282C3.209,-3.152 3.082,-3.807 2.828,-4.248C2.573,-4.688 2.191,-4.909 1.683,-4.909C1.113,-4.909 0.691,-4.672 0.415,-4.199C0.139,-3.725 0,-3.002 0,-2.028M3.226,0.525L4.522,0.525C4.512,1.641 4.256,2.494 3.755,3.085C3.255,3.676 2.542,3.972 1.617,3.972C0.6,3.972 -0.151,3.575 -0.636,2.782C-1.12,1.989 -1.362,0.76 -1.362,-0.903C-1.362,-2.665 -1.12,-3.955 -0.636,-4.773C-0.151,-5.591 0.61,-6 1.65,-6C2.629,-6 3.358,-5.653 3.837,-4.958C4.316,-4.262 4.556,-3.204 4.556,-1.782C4.556,-1.557 4.554,-1.387 4.551,-1.273C4.549,-1.158 4.544,-1.053 4.539,-0.961L0,-0.953L0,-0.534C0,0.648 0.137,1.509 0.411,2.051C0.685,2.593 1.119,2.864 1.716,2.864C2.181,2.864 2.549,2.66 2.819,2.252C3.091,1.845 3.226,1.29 3.226,0.59L3.226,0.525Z" style="fill:rgb(68,68,69);fill-rule:nonzero;"/>
        </g>
        <g transform="matrix(1,0,0,1,255.002,134.646)">
            <path d="M0,7.871C0,8.265 0.071,8.523 0.214,8.646C0.355,8.769 0.694,8.831 1.231,8.831C1.302,8.831 1.361,8.83 1.407,8.827C1.454,8.824 1.494,8.82 1.526,8.814L1.535,9.972C1.453,9.977 1.343,9.982 1.206,9.988C0.873,10.005 0.656,10.013 0.559,10.013C-0.065,10.013 -0.529,9.889 -0.833,9.64C-1.137,9.391 -1.288,9.015 -1.288,8.511L-1.288,1.47L-2.602,1.47L-2.602,0.378L-1.288,0.378L-1.288,-2.142L0,-2.142L0,0.378L1.535,0.378L1.535,1.47L0,1.47L0,7.871Z" style="fill:rgb(68,68,69);fill-rule:nonzero;"/>
        </g>
        <g transform="matrix(1,0,0,1,257.292,131.832)">
            <path d="M0,12.639L0,0L1.329,0L1.329,4.218C1.575,3.803 1.886,3.493 2.261,3.291C2.636,3.089 3.086,2.988 3.61,2.988C4.339,2.988 4.904,3.175 5.31,3.55C5.715,3.924 5.917,4.451 5.917,5.129L5.917,12.639L4.588,12.639L4.588,5.761C4.588,5.203 4.482,4.798 4.271,4.547C4.061,4.295 3.723,4.169 3.258,4.169C2.673,4.169 2.204,4.356 1.854,4.728C1.504,5.1 1.329,5.603 1.329,6.238L1.329,12.639L0,12.639Z" style="fill:rgb(68,68,69);fill-rule:nonzero;"/>
        </g>
        <g transform="matrix(1,0,0,1,265.95,140.753)">
            <path d="M0,-2.028L3.209,-2.028L3.209,-2.282C3.209,-3.152 3.082,-3.807 2.828,-4.248C2.573,-4.688 2.191,-4.909 1.683,-4.909C1.113,-4.909 0.691,-4.672 0.415,-4.199C0.139,-3.725 0,-3.002 0,-2.028M3.226,0.525L4.522,0.525C4.512,1.641 4.256,2.494 3.755,3.085C3.255,3.676 2.542,3.972 1.617,3.972C0.6,3.972 -0.151,3.575 -0.636,2.782C-1.12,1.989 -1.362,0.76 -1.362,-0.903C-1.362,-2.665 -1.12,-3.955 -0.636,-4.773C-0.151,-5.591 0.61,-6 1.65,-6C2.629,-6 3.358,-5.653 3.837,-4.958C4.316,-4.262 4.556,-3.204 4.556,-1.782C4.556,-1.557 4.554,-1.387 4.551,-1.273C4.549,-1.158 4.544,-1.053 4.539,-0.961L0,-0.953L0,-0.534C0,0.648 0.137,1.509 0.411,2.051C0.685,2.593 1.119,2.864 1.716,2.864C2.181,2.864 2.549,2.66 2.819,2.252C3.091,1.845 3.226,1.29 3.226,0.59L3.226,0.525Z" style="fill:rgb(68,68,69);fill-rule:nonzero;"/>
        </g>
        <g transform="matrix(1,0,0,1,275.768,131.832)">
            <path d="M0,12.639L0,0L1.28,0L1.28,7.477L4.506,3.193L6.048,3.193L3.225,6.771L6.27,12.639L4.653,12.639L2.322,7.986L1.28,9.274L1.28,12.639L0,12.639Z" style="fill:rgb(68,68,69);fill-rule:nonzero;"/>
        </g>
        <g transform="matrix(1,0,0,1,282.555,134.82)">
            <path d="M0,9.651L0,0.205L1.239,0.205L1.239,1.379C1.469,0.919 1.78,0.574 2.175,0.344C2.568,0.115 3.047,0 3.61,0C4.442,0 5.035,0.211 5.388,0.631C5.74,1.052 5.917,1.778 5.917,2.806L5.917,9.651L4.588,9.651L4.588,2.708C4.588,2.194 4.478,1.81 4.259,1.559C4.04,1.307 3.706,1.181 3.258,1.181C2.667,1.181 2.198,1.368 1.851,1.74C1.503,2.112 1.329,2.615 1.329,3.25L1.329,9.651L0,9.651Z" style="fill:rgb(68,68,69);fill-rule:nonzero;"/>
        </g>
        <g transform="matrix(1,0,0,1,291.263,139.728)">
            <path d="M0,0.024C0,1.435 0.145,2.43 0.435,3.007C0.725,3.585 1.215,3.873 1.904,3.873C2.582,3.873 3.068,3.579 3.36,2.991C3.653,2.403 3.8,1.414 3.8,0.024C3.8,-1.377 3.653,-2.366 3.36,-2.943C3.068,-3.52 2.582,-3.809 1.904,-3.809C1.22,-3.809 0.731,-3.523 0.438,-2.952C0.146,-2.379 0,-1.388 0,0.024M-1.412,0.024C-1.412,-1.672 -1.14,-2.929 -0.595,-3.747C-0.051,-4.565 0.782,-4.974 1.904,-4.974C3.042,-4.974 3.881,-4.57 4.419,-3.76C4.958,-2.95 5.228,-1.689 5.228,0.024C5.228,1.736 4.96,2.994 4.424,3.795C3.887,4.596 3.048,4.998 1.904,4.998C0.755,4.998 -0.085,4.599 -0.615,3.803C-1.146,3.007 -1.412,1.748 -1.412,0.024" style="fill:rgb(68,68,69);fill-rule:nonzero;"/>
        </g>
        <g transform="matrix(1,0,0,1,299.668,135.025)">
            <path d="M0,9.446L-2.422,0L-1.06,0L0.689,7.55L2.149,0L3.496,0L5.129,7.566L6.754,0L8.067,0L5.777,9.446L4.473,9.446L2.823,2.117L1.378,9.446L0,9.446Z" style="fill:rgb(68,68,69);fill-rule:nonzero;"/>
        </g>
        <g transform="matrix(1,0,0,1,0,106.224)">
            <rect x="308.745" y="25.608" width="1.313" height="12.639" style="fill:rgb(68,68,69);"/>
        </g>
        <g transform="matrix(1,0,0,1,312.808,140.753)">
            <path d="M0,-2.028L3.209,-2.028L3.209,-2.282C3.209,-3.152 3.082,-3.807 2.828,-4.248C2.573,-4.688 2.191,-4.909 1.683,-4.909C1.113,-4.909 0.691,-4.672 0.415,-4.199C0.139,-3.725 0,-3.002 0,-2.028M3.226,0.525L4.522,0.525C4.512,1.641 4.256,2.494 3.755,3.085C3.255,3.676 2.542,3.972 1.617,3.972C0.6,3.972 -0.151,3.575 -0.636,2.782C-1.12,1.989 -1.362,0.76 -1.362,-0.903C-1.362,-2.665 -1.12,-3.955 -0.636,-4.773C-0.151,-5.591 0.61,-6 1.65,-6C2.629,-6 3.358,-5.653 3.837,-4.958C4.316,-4.262 4.556,-3.204 4.556,-1.782C4.556,-1.557 4.554,-1.387 4.551,-1.273C4.549,-1.158 4.544,-1.053 4.539,-0.961L0,-0.953L0,-0.534C0,0.648 0.137,1.509 0.411,2.051C0.685,2.593 1.119,2.864 1.716,2.864C2.181,2.864 2.549,2.66 2.819,2.252C3.091,1.845 3.226,1.29 3.226,0.59L3.226,0.525Z" style="fill:rgb(68,68,69);fill-rule:nonzero;"/>
        </g>
        <g transform="matrix(1,0,0,1,323.551,136.813)">
            <path d="M0,2.865C0,1.486 -0.136,0.526 -0.406,-0.016C-0.677,-0.557 -1.139,-0.828 -1.789,-0.828C-2.407,-0.828 -2.864,-0.535 -3.16,0.05C-3.455,0.636 -3.604,1.541 -3.604,2.766C-3.604,4.135 -3.462,5.126 -3.181,5.742C-2.898,6.357 -2.451,6.665 -1.839,6.665C-1.188,6.665 -0.719,6.375 -0.431,5.795C-0.144,5.215 0,4.238 0,2.865M1.239,7.658L0,7.658L0,6.468C-0.12,6.884 -0.367,7.218 -0.739,7.469C-1.111,7.72 -1.549,7.846 -2.052,7.846C-3.025,7.846 -3.769,7.402 -4.28,6.513C-4.792,5.624 -5.048,4.332 -5.048,2.636C-5.048,1.164 -4.79,0.021 -4.276,-0.791C-3.762,-1.604 -3.045,-2.01 -2.126,-2.01C-1.628,-2.01 -1.188,-1.898 -0.809,-1.673C-0.429,-1.449 -0.188,-1.161 -0.091,-0.812L-0.091,-4.981L1.239,-4.981L1.239,7.658Z" style="fill:rgb(68,68,69);fill-rule:nonzero;"/>
        </g>
        <g transform="matrix(1,0,0,1,327.581,142.698)">
            <path d="M0,-2.931C0,-1.612 0.138,-0.666 0.414,-0.095C0.69,0.477 1.141,0.762 1.765,0.762C2.415,0.762 2.881,0.472 3.159,-0.108C3.438,-0.687 3.578,-1.669 3.578,-3.054C3.578,-4.356 3.432,-5.299 3.139,-5.885C2.847,-6.47 2.377,-6.763 1.731,-6.763C1.124,-6.763 0.684,-6.465 0.41,-5.869C0.137,-5.272 0,-4.293 0,-2.931M-1.108,2.642L0.205,2.642C0.227,3.025 0.369,3.315 0.632,3.512C0.895,3.709 1.267,3.807 1.748,3.807C2.394,3.807 2.86,3.596 3.147,3.175C3.435,2.755 3.578,2.073 3.578,1.132C3.578,1.105 3.575,1.037 3.57,0.926C3.564,0.817 3.562,0.719 3.562,0.632C3.37,1.058 3.098,1.38 2.745,1.595C2.393,1.812 1.964,1.92 1.461,1.92C0.503,1.92 -0.212,1.495 -0.686,0.643C-1.159,-0.207 -1.396,-1.499 -1.396,-3.234C-1.396,-4.783 -1.147,-5.947 -0.652,-6.726C-0.157,-7.506 0.583,-7.896 1.567,-7.896C2.065,-7.896 2.489,-7.78 2.84,-7.547C3.189,-7.315 3.436,-6.988 3.578,-6.566L3.578,-7.674L4.858,-7.674L4.858,1.338C4.858,2.497 4.579,3.391 4.021,4.021C3.463,4.65 2.673,4.965 1.649,4.965C0.84,4.965 0.178,4.753 -0.337,4.329C-0.851,3.905 -1.108,3.361 -1.108,2.7L-1.108,2.642Z" style="fill:rgb(68,68,69);fill-rule:nonzero;"/>
        </g>
        <g transform="matrix(1,0,0,1,335.181,140.753)">
            <path d="M0,-2.028L3.209,-2.028L3.209,-2.282C3.209,-3.152 3.082,-3.807 2.828,-4.248C2.573,-4.688 2.191,-4.909 1.683,-4.909C1.113,-4.909 0.691,-4.672 0.415,-4.199C0.139,-3.725 0,-3.002 0,-2.028M3.226,0.525L4.522,0.525C4.512,1.641 4.256,2.494 3.755,3.085C3.255,3.676 2.542,3.972 1.617,3.972C0.6,3.972 -0.151,3.575 -0.636,2.782C-1.12,1.989 -1.362,0.76 -1.362,-0.903C-1.362,-2.665 -1.12,-3.955 -0.636,-4.773C-0.151,-5.591 0.61,-6 1.65,-6C2.629,-6 3.358,-5.653 3.837,-4.958C4.316,-4.262 4.556,-3.204 4.556,-1.782C4.556,-1.557 4.554,-1.387 4.551,-1.273C4.549,-1.158 4.544,-1.053 4.539,-0.961L0,-0.953L0,-0.534C0,0.648 0.137,1.509 0.411,2.051C0.685,2.593 1.119,2.864 1.716,2.864C2.181,2.864 2.549,2.66 2.819,2.252C3.091,1.845 3.226,1.29 3.226,0.59L3.226,0.525Z" style="fill:rgb(68,68,69);fill-rule:nonzero;"/>
        </g>
    </g>
</svg>
