<?xml version="1.0" encoding="UTF-8" standalone="no"?>
<!DOCTYPE svg PUBLIC "-//W3C//DTD SVG 1.1//EN" "http://www.w3.org/Graphics/SVG/1.1/DTD/svg11.dtd">
<svg width="100%" height="100%" viewBox="0 0 996 418" version="1.1" xmlns="http://www.w3.org/2000/svg" xmlns:xlink="http://www.w3.org/1999/xlink" xml:space="preserve" xmlns:serif="http://www.serif.com/" style="fill-rule:evenodd;clip-rule:evenodd;stroke-linejoin:round;stroke-miterlimit:2;">
    <g transform="matrix(0.391968,0,0,-0.391968,1.7053e-13,417.048)">
        <path d="M186.166,17.778L142.919,17.778L142.919,141.713L117.678,17.778L84.29,17.778L55.343,141.713L55.343,17.778L17.48,17.778L17.48,238.52L79.815,238.52L101.98,123.988L121.209,238.52L186.166,238.52L186.166,17.778Z" style="fill:white;fill-rule:nonzero;"/>
    </g>
    <g transform="matrix(0.391968,0,0,-0.391968,1.7053e-13,417.048)">
        <path d="M267.799,107.697L260.807,173.563L254.2,107.697L267.799,107.697ZM327.932,17.778L279.896,17.778L271.715,77.036L250.179,77.036L241.928,17.778L193.857,17.778L230.147,238.52L291.608,238.52L327.932,17.778Z" style="fill:white;fill-rule:nonzero;"/>
    </g>
    <g transform="matrix(0.391968,0,0,-0.391968,1.7053e-13,417.048)">
        <path d="M399.671,162.2L399.671,198.629C399.671,206.321 394.707,210.201 384.743,210.201L384.743,150.489C394.707,150.489 399.671,154.404 399.671,162.235L399.671,162.2ZM455.399,17.498L406.908,17.498C401.664,23.756 399.077,41.516 399.077,70.743L399.077,71.058L399.391,84.308C399.706,102.662 399.846,112.067 399.846,112.486C399.846,119.968 394.812,123.709 384.743,123.709L384.743,17.778L336.252,17.778L336.252,238.52L396.14,238.52C409.775,238.52 421.661,235.373 431.765,229.115C441.869,222.857 446.938,212.963 446.938,199.399L446.938,172.933C446.938,155.803 436.939,144.196 416.907,138.147C437.009,133.428 447.078,121.261 447.078,101.683L446.309,77.525C446.309,42.215 449.35,22.218 455.399,17.498Z" style="fill:white;fill-rule:nonzero;"/>
    </g>
    <g transform="matrix(0.391968,0,0,-0.391968,1.7053e-13,417.048)">
        <rect x="461.237" y="17.778" width="48.491" height="220.742" style="fill:white;"/>
    </g>
    <g transform="matrix(0.391968,0,0,-0.391968,1.7053e-13,417.048)">
        <path d="M642.718,17.778L592.829,17.778L559.896,135.385L559.896,17.778L519.412,17.778L519.412,238.52L574.51,238.52L602.234,137.868L602.234,238.52L642.718,238.52L642.718,17.778Z" style="fill:white;fill-rule:nonzero;"/>
    </g>
    <g transform="matrix(0.391968,0,0,-0.391968,1.7053e-13,417.048)">
        <path d="M748.16,17.778L653.346,17.778L653.346,238.52L747.565,238.52L747.565,210.201L701.837,210.201L701.837,150.489L743.09,150.489L743.09,123.709L701.837,123.709L701.837,46.096L748.16,46.096L748.16,17.778Z" style="fill:white;fill-rule:nonzero;"/>
    </g>
    <g transform="matrix(0.397615,0,0,-0.397615,311.798,417.71)">
        <path d="M79.75,161.568L79.75,197.48C79.75,205.062 74.856,208.887 65.034,208.887L65.034,149.988C74.856,149.988 79.75,153.848 79.75,161.568ZM134.686,18.886L86.884,18.886C81.715,25.055 79.164,42.563 79.164,71.375L79.164,71.686L79.474,84.747C79.785,102.841 79.922,112.112 79.922,112.526C79.922,119.901 74.96,123.589 65.034,123.589L65.034,19.197L17.232,19.197L17.232,236.803L76.269,236.803C89.71,236.803 101.428,233.702 111.388,227.533C121.348,221.364 126.346,211.61 126.346,198.238L126.346,172.149C126.346,155.261 116.489,143.819 96.741,137.857C116.558,133.204 126.484,121.211 126.484,101.911L125.725,78.096C125.725,43.287 128.689,23.574 134.686,18.921L134.686,18.886Z" style="fill:white;fill-rule:nonzero;"/>
    </g>
    <g transform="matrix(0.397615,0,0,-0.397615,311.798,417.71)">
        <path d="M203.097,54.109L203.097,202.339C203.097,206.682 200.513,208.853 195.343,208.853C189.967,208.853 187.313,206.682 187.313,202.339L187.313,54.109C187.313,49.766 190.001,47.595 195.343,47.595C200.513,47.595 203.097,49.766 203.097,54.109ZM140.717,56.383L140.717,196.446C140.752,224.638 159.018,238.768 195.584,238.768C231.634,238.768 249.693,224.741 249.693,196.722L249.693,56.694C249.693,44.045 244.661,34.326 234.598,27.468C224.534,20.61 211.438,17.232 195.274,17.232C158.914,17.232 140.717,30.294 140.717,56.383Z" style="fill:white;fill-rule:nonzero;"/>
    </g>
    <g transform="matrix(0.397615,0,0,-0.397615,311.798,417.71)">
        <path d="M320.689,58.658L320.689,113.732C320.689,121.314 316.243,125.105 307.317,125.105L307.317,47.113C316.209,47.113 320.689,50.938 320.689,58.658ZM320.689,160.327L320.689,197.48C320.689,205.062 316.243,208.887 307.317,208.887L307.317,148.782C316.209,148.782 320.689,152.642 320.689,160.327ZM259.55,19.197L259.55,236.803L315.864,236.803C329.305,236.803 340.989,233.736 350.914,227.636C360.84,221.536 365.803,211.714 365.803,198.272L365.803,168.082C365.803,152.814 356.498,142.027 337.887,135.754C357.497,130.895 367.319,120.418 367.319,104.358L367.319,62.139C367.319,47.767 362.632,37.015 353.292,29.88C343.953,22.746 332.786,19.197 319.828,19.197L259.55,19.197Z" style="fill:white;fill-rule:nonzero;"/>
    </g>
    <g transform="matrix(0.397615,0,0,-0.397615,311.798,417.71)">
        <path d="M439.522,54.109L439.522,202.339C439.522,206.682 436.937,208.853 431.767,208.853C426.391,208.853 423.737,206.682 423.737,202.339L423.737,54.109C423.737,49.766 426.425,47.595 431.767,47.595C436.937,47.595 439.522,49.766 439.522,54.109ZM377.142,56.383L377.142,196.446C377.142,224.638 395.442,238.768 432.009,238.768C468.058,238.768 486.117,224.741 486.117,196.722L486.117,56.694C486.117,44.045 481.086,34.326 471.022,27.468C460.959,20.61 447.862,17.232 431.698,17.232C395.339,17.232 377.142,30.294 377.142,56.383Z" style="fill:white;fill-rule:nonzero;"/>
    </g>
    <g transform="matrix(0.397615,0,0,-0.397615,311.798,417.71)">
        <path d="M595.955,208.405L569.245,208.405L569.245,19.197L521.443,19.197L521.443,208.405L494.733,208.405L494.733,236.803L595.955,236.803L595.955,208.405Z" style="fill:white;fill-rule:nonzero;"/>
    </g>
    <g transform="matrix(0.397615,0,0,-0.397615,311.798,417.71)">
        <rect x="604.295" y="19.197" width="47.802" height="217.607" style="fill:white;"/>
    </g>
    <g transform="matrix(0.397615,0,0,-0.397615,311.798,417.71)">
        <path d="M766.208,160.775L722.783,160.775L722.783,203.856C722.783,207.406 720.577,209.163 716.2,209.163C711.617,209.163 709.307,207.371 709.307,203.856L709.307,52.903C709.307,49.353 711.617,47.595 716.2,47.595C720.612,47.595 722.783,49.353 722.783,52.903L722.783,106.598L766.173,106.598L766.173,51.386C766.173,41.081 761.107,32.81 751.009,26.572C740.911,20.334 729.469,17.232 716.717,17.232C679.91,17.232 661.471,30.294 661.471,56.383L661.471,196.446C661.506,224.638 679.91,238.768 716.717,238.768C749.7,238.768 766.173,225.913 766.173,200.237L766.208,160.775Z" style="fill:white;fill-rule:nonzero;"/>
    </g>
    <g transform="matrix(0.397615,0,0,-0.397615,311.798,417.71)">
        <path d="M776.513,106.322L819.903,106.322L819.903,56.383C819.903,51.421 822.901,48.939 828.933,48.939C834.757,48.939 837.652,51.421 837.652,56.383L837.652,82.163C837.652,90.055 832.379,99.326 821.868,109.941C801.534,129.654 788.885,142.923 783.923,149.712C778.96,156.502 776.478,163.912 776.478,172.011L776.478,196.411C776.513,224.638 794.951,238.768 831.828,238.768C864.844,238.768 881.353,225.913 881.353,200.237L881.353,162.602L837.962,162.602L837.962,202.649C837.962,206.992 835.515,209.198 830.69,209.198C825.004,209.198 822.178,204.993 822.178,196.584L823.108,182.488C823.108,174.389 828.485,164.98 839.237,154.262C859.227,135.134 871.91,121.796 877.32,114.214C882.731,106.632 885.454,98.016 885.454,88.435L885.454,60.657C885.454,31.741 866.981,17.267 830.001,17.267C794.331,17.267 776.513,30.397 776.513,56.728L776.513,106.322Z" style="fill:white;fill-rule:nonzero;"/>
    </g>
    <g transform="matrix(1.1527,0,0,-1.1527,227.561,295.092)">
        <path d="M137.439,66.503C150.575,71.306 163.581,77.226 176.17,82.956C188.058,88.366 200.351,93.965 212.857,98.673C260.897,116.754 307.058,126.99 353.981,129.974L384.355,131.424L408.892,181.426C408.892,181.426 333.343,182.234 222.855,135.122C112.367,88.009 5.944,124.553 5.944,124.553L39.302,54.984C69.522,50.502 104.271,54.377 137.439,66.491L137.439,66.503Z" style="fill:white;fill-rule:nonzero;"/>
    </g>
    <g transform="matrix(1.1527,0,0,-1.1527,227.561,295.092)">
        <path d="M324.51,79.022L320.932,77.476L320.979,77.357L257.069,51.132L303.147,42.049L296.514,35.083L243.445,45.533L192.385,24.586C188.415,22.957 184.088,22.291 179.843,22.933C173.198,23.944 172.069,27.273 175.588,32.563C178.167,36.438 181.971,39.339 186.275,41.098L236.134,61.558L260.968,104.212L265.141,95.225L248.486,66.622L311.433,92.455L311.433,100.777L325.532,106.994L324.51,79.022ZM354.385,123.483C308.116,120.547 262.561,110.442 215.139,92.586C202.835,87.95 190.65,82.398 178.857,77.036C166.16,71.259 153.036,65.279 139.674,60.393C114.72,51.275 88.84,46.686 64.493,46.686C57.039,46.686 49.74,47.138 42.643,48.005L62.817,5.933L322.786,5.933L381.121,124.815C372.181,124.529 363.242,124.042 354.397,123.483L354.385,123.483Z" style="fill:white;fill-rule:nonzero;"/>
    </g>
    <g transform="matrix(1.1527,0,0,-1.1527,227.561,295.092)">
        <path d="M370.695,210.992L370.695,202.872C402.627,202.872 428.591,176.896 428.591,144.977L428.4,140.067L436.544,140.067C436.663,141.696 436.722,143.312 436.722,144.977C436.722,181.366 407.097,210.992 370.707,210.992L370.695,210.992Z" style="fill:white;fill-rule:nonzero;"/>
    </g>
    <g transform="matrix(1.1527,0,0,-1.1527,227.561,295.092)">
        <path d="M370.695,231.938L370.695,223.819C414.158,223.819 449.526,188.44 449.526,144.977L449.383,140.067L457.502,140.067C457.598,141.696 457.645,143.336 457.645,144.977C457.645,192.922 418.628,231.938 370.684,231.938L370.695,231.938Z" style="fill:white;fill-rule:nonzero;"/>
    </g>
    <g transform="matrix(1.1527,0,0,-1.1527,227.561,295.092)">
        <path d="M370.695,250.056L370.695,241.936C424.156,241.936 467.643,198.438 467.643,144.989L467.512,140.079L475.656,140.079C475.739,141.708 475.775,143.348 475.775,144.989C475.775,202.92 428.638,250.056 370.695,250.056Z" style="fill:white;fill-rule:nonzero;"/>
    </g>
    <g transform="matrix(1.1527,0,0,-1.1527,227.561,295.092)">
        <path d="M218.682,213.571L218.682,202.159C218.682,195.858 213.487,190.746 207.067,190.746C203.869,190.746 200.969,192.03 198.865,194.099C196.76,196.167 195.464,199.008 195.464,202.171L195.464,210.338L162.748,210.338L155.889,196.952C160.858,191.554 163.866,184.422 163.866,176.575L163.866,143.622C163.866,142.195 162.701,141.042 161.274,141.042C159.848,141.042 158.683,142.195 158.683,143.622L158.683,151.622L155.592,151.622L155.592,162.785L158.683,162.785L158.683,176.564C158.683,182.365 156.697,187.703 153.345,191.982L150.551,186.538C149.077,183.649 146.117,181.854 142.871,181.854L106.197,181.854C102.951,181.854 99.979,183.661 98.517,186.538L95.735,191.982C92.383,187.703 90.385,182.365 90.385,176.564L90.385,162.773L93.464,162.773L93.464,151.622L90.373,151.622L90.373,143.622C90.373,142.195 89.208,141.042 87.782,141.042C86.355,141.042 85.19,142.195 85.19,143.622L85.19,176.564C85.19,184.41 88.198,191.554 93.167,196.94L86.32,210.338L58.763,210.338L58.763,202.147C58.763,195.846 53.568,190.734 47.16,190.734C43.95,190.734 41.05,192.018 38.945,194.087C36.841,196.155 35.545,198.996 35.545,202.147L35.545,213.559L41.038,213.559L41.038,221.406L53.283,221.406L53.283,217.197L100.467,217.197L100.467,224.152L148.613,224.152L148.613,217.221L200.957,217.221L200.957,221.417L213.202,221.417L213.202,213.571L218.682,213.571ZM232.234,228.657L181.912,228.657C180.866,228.657 179.998,227.801 179.998,226.755C179.998,225.709 180.866,224.853 181.912,224.853L232.234,224.853C233.292,224.853 234.148,225.709 234.148,226.755C234.148,227.801 233.281,228.657 232.234,228.657ZM211.395,234.851C210.337,235.897 208.874,236.551 207.269,236.599C204.416,236.706 202.003,234.696 201.206,232.081L212.999,232.081C212.726,233.151 212.167,234.09 211.395,234.851ZM72.66,228.657L22.338,228.657C21.28,228.657 20.424,227.801 20.424,226.755C20.424,225.709 21.292,224.853 22.338,224.853L72.66,224.853C73.718,224.853 74.574,225.709 74.574,226.755C74.574,227.801 73.718,228.657 72.66,228.657ZM51.499,234.851C50.429,235.897 48.979,236.551 47.35,236.599C44.497,236.706 42.084,234.696 41.287,232.081L53.08,232.081C52.807,233.151 52.248,234.09 51.487,234.851L51.499,234.851Z" style="fill:white;fill-rule:nonzero;"/>
    </g>
    <g transform="matrix(0.397615,0,0,-0.397615,683.027,417.71)">
        <path d="M17.232,106.322L60.623,106.322L60.623,56.383C60.623,51.421 63.621,48.939 69.652,48.939C75.477,48.939 78.372,51.421 78.372,56.383L78.372,82.163C78.372,90.055 73.099,99.326 62.587,109.941C42.253,129.654 29.605,142.923 24.642,149.712C19.679,156.502 17.232,163.912 17.232,172.011L17.232,196.411C17.232,224.638 35.67,238.768 72.547,238.768C105.564,238.768 122.072,225.913 122.072,200.237L122.072,162.602L78.682,162.602L78.682,202.649C78.682,206.992 76.235,209.198 71.41,209.198C65.723,209.198 62.897,204.993 62.897,196.584L63.828,182.488C63.828,174.389 69.204,164.98 79.957,154.262C99.946,135.134 112.629,121.796 118.04,114.214C123.451,106.632 126.173,98.016 126.173,88.435L126.173,60.657C126.173,31.741 107.666,17.267 70.721,17.267C35.05,17.232 17.232,30.363 17.232,56.694L17.232,106.322Z" style="fill:white;fill-rule:nonzero;"/>
    </g>
    <g transform="matrix(0.397615,0,0,-0.397615,683.027,417.71)">
        <path d="M198.238,54.109L198.238,202.339C198.238,206.682 195.653,208.853 190.518,208.853C185.142,208.853 182.488,206.682 182.488,202.339L182.488,54.109C182.488,49.766 185.176,47.595 190.518,47.595C195.653,47.595 198.238,49.766 198.238,54.109ZM135.892,56.383L135.892,196.446C135.892,224.638 154.193,238.768 190.759,238.768C226.809,238.768 244.868,224.741 244.868,196.722L244.868,56.694C244.868,44.045 239.836,34.326 229.807,27.468C219.778,20.61 206.647,17.232 190.484,17.232C154.124,17.232 135.927,30.294 135.927,56.383L135.892,56.383Z" style="fill:white;fill-rule:nonzero;"/>
    </g>
    <g transform="matrix(0.397615,0,0,-0.397615,683.027,417.71)">
        <path d="M359.565,160.775L316.14,160.775L316.14,203.856C316.14,207.406 313.934,209.163 309.557,209.163C304.974,209.163 302.665,207.371 302.665,203.856L302.665,52.903C302.665,49.353 304.974,47.595 309.557,47.595C313.969,47.595 316.14,49.353 316.14,52.903L316.14,106.598L359.53,106.598L359.53,51.386C359.53,41.081 354.464,32.81 344.366,26.572C334.268,20.334 322.826,17.232 310.074,17.232C273.267,17.232 254.828,30.294 254.828,56.383L254.828,196.446C254.863,224.638 273.267,238.768 310.074,238.768C343.057,238.768 359.53,225.913 359.53,200.237L359.565,160.775Z" style="fill:white;fill-rule:nonzero;"/>
    </g>
    <g transform="matrix(0.397615,0,0,-0.397615,683.027,417.71)">
        <rect x="369.249" y="19.197" width="47.802" height="217.607" style="fill:white;"/>
    </g>
    <g transform="matrix(0.397615,0,0,-0.397615,683.027,417.71)">
        <path d="M520.099,19.197L426.632,19.197L426.632,236.803L519.479,236.803L519.479,208.887L474.4,208.887L474.4,149.988L515.067,149.988L515.067,123.589L474.4,123.589L474.4,47.113L520.065,47.113L520.099,19.197Z" style="fill:white;fill-rule:nonzero;"/>
    </g>
    <g transform="matrix(0.397615,0,0,-0.397615,683.027,417.71)">
        <path d="M627.662,208.405L600.952,208.405L600.952,19.197L553.185,19.197L553.185,208.405L526.475,208.405L526.475,236.803L627.696,236.803L627.662,208.405Z" style="fill:white;fill-rule:nonzero;"/>
    </g>
    <g transform="matrix(0.397615,0,0,-0.397615,683.027,417.71)">
        <path d="M767.242,236.803L720.37,105.254L720.37,19.197L672.569,19.197L672.569,103.565C671.673,111.25 667.571,126.277 660.265,148.644C653.993,167.565 644.791,196.963 632.659,236.803L678.29,236.803L699.83,159.638L724.265,236.803L767.242,236.803Z" style="fill:white;fill-rule:nonzero;"/>
    </g>
</svg>
