<?xml version="1.0" encoding="UTF-8" standalone="no"?>
<!DOCTYPE svg PUBLIC "-//W3C//DTD SVG 1.1//EN" "http://www.w3.org/Graphics/SVG/1.1/DTD/svg11.dtd">
<svg width="100%" height="100%" viewBox="0 0 913 255" version="1.1" xmlns="http://www.w3.org/2000/svg" xmlns:xlink="http://www.w3.org/1999/xlink" xml:space="preserve" xmlns:serif="http://www.serif.com/" style="fill-rule:evenodd;clip-rule:evenodd;stroke-linecap:round;stroke-linejoin:round;stroke-miterlimit:2;">
    <g transform="matrix(4.16667,0,0,4.16667,0,0)">
        <path d="M77.007,1.149L77.007,8.347C77.007,9.02 77.065,9.414 77.192,9.652C77.444,10.141 77.968,10.407 78.69,10.407C79.648,10.407 80.265,9.933 80.359,9.133C80.39,8.898 80.39,8.742 80.39,8.157L80.39,1.149L82.627,1.149L82.627,8.524C82.627,9.559 82.609,9.763 82.454,10.239C82.172,11.1 81.098,12.302 78.738,12.302C77.065,12.302 75.838,11.794 75.228,10.832C74.863,10.265 74.753,9.824 74.753,8.771L74.753,1.149L77.007,1.149Z" style="fill:white;fill-rule:nonzero;"/>
        <path d="M86.122,3.824C86.31,4.155 86.42,4.508 86.42,4.834C86.738,4.614 87.001,4.423 87.352,4.235C87.776,4.017 88.326,3.892 88.797,3.892C89.697,3.892 90.483,4.363 90.736,5.054C90.849,5.357 90.893,5.698 90.893,6.207L90.893,12.094L88.815,12.094L88.815,6.849C88.815,5.933 88.656,5.668 88.107,5.668C87.683,5.668 87.131,5.949 86.642,6.396L86.642,12.094L84.532,12.094L84.532,6.252C84.532,5.559 84.438,4.898 84.248,4.363L86.122,3.824Z" style="fill:white;fill-rule:nonzero;"/>
        <path d="M95.017,3.842L95.017,12.092L92.908,12.092L92.908,4.172L95.017,3.842ZM95.271,1.811C95.271,2.536 94.69,3.12 93.968,3.12C93.257,3.12 92.672,2.536 92.672,1.811C92.672,1.09 93.27,0.505 93.996,0.505C94.704,0.505 95.271,1.09 95.271,1.811Z" style="fill:white;fill-rule:nonzero;"/>
        <path d="M97.932,3.892L99.098,7.528C99.27,8.066 99.506,8.946 99.615,9.465C99.684,8.991 99.853,8.219 100.105,7.417L101.196,4.032L103.399,4.032L100.452,12.094L98.705,12.094L95.778,4.155L97.932,3.892Z" style="fill:white;fill-rule:nonzero;"/>
        <path d="M108.285,7.187L108.285,7.087C108.285,6.487 108.218,6.176 108.026,5.873C107.824,5.561 107.525,5.4 107.1,5.4C106.296,5.4 105.841,6.034 105.841,7.147L105.841,7.187L108.285,7.187ZM110.377,11.195C109.446,11.952 108.468,12.314 107.337,12.314C105.02,12.314 103.527,10.674 103.527,8.141C103.527,6.697 103.823,5.734 104.534,4.948C105.196,4.202 105.998,3.861 107.07,3.861C107.996,3.861 108.878,4.172 109.401,4.708C110.137,5.466 110.47,6.55 110.47,8.233L110.47,8.724L105.81,8.724L105.81,8.788C105.81,10.032 106.425,10.738 107.51,10.738C108.235,10.738 108.914,10.471 109.555,9.933L110.377,11.195Z" style="fill:white;fill-rule:nonzero;"/>
        <path d="M113.523,3.842C113.711,4.172 113.824,4.534 113.855,4.988C114.152,4.581 114.662,4.141 115.05,3.97C115.223,3.892 115.512,3.842 115.746,3.842C116.059,3.842 116.203,3.876 116.534,4.017L115.947,5.873C115.746,5.764 115.572,5.719 115.334,5.719C114.865,5.719 114.439,5.933 114.046,6.394L114.046,12.092L111.934,12.092L111.934,6.707C111.934,5.62 111.806,4.803 111.638,4.347L113.523,3.842Z" style="fill:white;fill-rule:nonzero;"/>
        <path d="M122.457,5.987C121.652,5.575 121.068,5.403 120.468,5.403C119.854,5.403 119.443,5.719 119.443,6.188C119.443,6.596 119.715,6.823 120.453,7.005L121.431,7.26C122.424,7.505 122.751,7.812 123.039,8.172C123.335,8.555 123.481,9.007 123.481,9.545C123.481,11.212 122.092,12.345 120.028,12.345C119.033,12.345 117.949,12.03 116.766,11.415L117.53,9.872C118.168,10.265 119.289,10.792 120.201,10.792C120.8,10.792 121.27,10.392 121.27,9.872C121.27,9.32 120.877,9.038 120.028,8.882L119.084,8.711C118.547,8.615 117.888,8.234 117.605,7.89C117.323,7.542 117.143,6.958 117.143,6.441C117.143,4.867 118.393,3.811 120.26,3.811C121.559,3.811 122.409,4.204 123.144,4.566L122.457,5.987Z" style="fill:white;fill-rule:nonzero;"/>
        <path d="M127.035,3.842L127.035,12.092L124.923,12.092L124.923,4.172L127.035,3.842ZM127.287,1.811C127.287,2.536 126.707,3.12 125.978,3.12C125.273,3.12 124.687,2.536 124.687,1.811C124.687,1.09 125.285,0.505 126.014,0.505C126.72,0.505 127.287,1.09 127.287,1.811Z" style="fill:white;fill-rule:nonzero;"/>
        <path d="M132.566,5.48L131.207,5.48L131.207,9.528C131.207,10.553 131.398,10.818 132.119,10.818C132.314,10.818 132.499,10.769 132.878,10.66L133.143,11.92C132.529,12.175 131.975,12.282 131.432,12.282C130.353,12.282 129.507,11.815 129.257,11.102C129.126,10.755 129.114,10.601 129.114,9.857L129.114,5.48L128.315,5.48L128.315,4.032L129.114,4.032C129.114,3.248 129.114,2.723 129.195,2.123L131.335,1.593C131.254,2.33 131.207,3.211 131.207,4.032L133.099,4.032L132.566,5.48Z" style="fill:white;fill-rule:nonzero;"/>
        <path d="M135.823,3.906L137.226,8.612C137.37,9.107 137.65,10.283 137.65,10.283C137.65,10.283 137.81,9.386 137.899,8.987C137.964,8.723 138.087,8.252 138.22,7.876L139.426,4.03L141.644,4.03L138.72,12.218C138.169,13.78 137.764,14.457 137.175,14.878C136.641,15.274 135.95,15.527 135.225,15.624L134.5,14.239C134.956,14.109 135.49,13.92 135.806,13.699C136.042,13.526 136.232,13.306 136.407,13.037C136.612,12.708 136.675,12.563 136.863,12.092L136.326,12.092C136.078,11.339 135.649,10.078 135.571,9.824L133.665,4.157L135.823,3.906Z" style="fill:white;fill-rule:nonzero;"/>
        <path d="M146.324,6.252C146.18,6.678 146.099,7.246 146.099,8.044C146.099,8.977 146.195,9.672 146.365,10.078C146.555,10.522 147.032,10.74 147.442,10.74C148.356,10.74 148.747,9.923 148.747,8.018C148.747,6.927 148.608,6.221 148.321,5.859C148.116,5.594 147.791,5.435 147.409,5.435C146.904,5.435 146.493,5.75 146.324,6.252ZM150.121,5.085C150.766,5.842 151.042,6.726 151.042,8.03C151.042,9.414 150.728,10.362 150.039,11.148C149.425,11.844 148.62,12.269 147.381,12.269C145.184,12.269 143.755,10.626 143.755,8.096C143.755,5.561 145.2,3.875 147.381,3.875C148.528,3.875 149.425,4.263 150.121,5.085Z" style="fill:white;fill-rule:nonzero;"/>
        <path d="M155.535,1.968C155.002,1.968 154.652,2.301 154.652,2.881L154.652,4.03L156.705,4.03L156.165,5.48L154.667,5.48L154.667,12.094L152.607,12.094L152.607,5.48L151.881,5.48L151.881,4.03L152.647,4.03C152.607,3.7 152.571,3.291 152.571,2.931C152.571,1.34 153.523,0.424 155.168,0.424C155.864,0.424 156.432,0.569 157.078,0.929L156.401,2.237C155.942,2.019 155.784,1.968 155.535,1.968Z" style="fill:white;fill-rule:nonzero;"/>
        <path d="M183.968,23.414L181.56,31.042C181.305,31.79 181.06,32.736 180.94,33.26C180.751,34.048 180.438,35.828 180.438,35.828C180.438,35.828 179.867,33.487 179.588,32.514L176.816,23.166L172.525,23.668L176.312,34.919C176.466,35.43 177.309,37.927 177.811,39.422L178.867,39.422C178.492,40.366 178.372,40.638 177.969,41.296C177.623,41.836 177.243,42.269 176.781,42.61C176.151,43.053 175.088,43.426 174.188,43.677L175.619,46.43C177.062,46.243 178.43,45.74 179.501,44.963C180.661,44.113 181.468,42.769 182.555,39.675L188.382,23.414L183.968,23.414ZM162.369,35.298C161.332,36.197 160.459,36.614 159.486,36.614C158.769,36.614 158.04,36.264 157.62,35.703C157.074,35.013 156.8,33.764 156.8,31.673C156.8,27.915 157.644,26.295 159.517,26.295C160.31,26.295 161.203,26.755 162.047,27.538L164.095,24.79C163.392,24.195 163.108,23.98 162.519,23.668C161.65,23.199 160.483,22.945 159.418,22.945C158.073,22.945 156.527,23.414 155.445,24.134C153.584,25.415 152.176,27.857 152.176,31.545C152.176,36.737 154.738,39.798 159.147,39.798C160.672,39.798 161.92,39.455 163.056,38.792C163.615,38.458 163.894,38.235 164.514,37.61L162.615,35.078L162.369,35.298ZM209.439,29.607C209.439,27.386 210.352,26.134 211.95,26.134C212.795,26.134 213.382,26.449 213.792,27.076C214.168,27.668 214.287,28.298 214.287,29.484L214.287,29.671L209.439,29.671L209.439,29.607ZM218.637,32.736L218.637,31.759C218.637,28.421 217.977,26.26 216.516,24.761C215.475,23.703 213.735,23.074 211.884,23.074C209.761,23.074 208.167,23.76 206.849,25.23C205.44,26.79 204.858,28.698 204.858,31.579C204.858,36.614 207.815,39.864 212.421,39.864C214.668,39.864 216.611,39.149 218.451,37.639L216.824,35.141C215.541,36.197 214.199,36.737 212.764,36.737C210.599,36.737 209.377,35.328 209.377,32.86L209.377,32.736L218.637,32.736ZM145.252,22.978C143.643,22.978 141.821,23.668 140.729,24.697C140.729,24.512 140.79,23.859 140.79,23.351L140.79,18.039L136.525,18.039C136.53,18.284 136.538,20.669 136.538,20.915L136.538,39.422L140.79,39.422L140.79,27.947C141.722,27.109 143.071,26.487 144.101,26.487C145.282,26.487 145.732,27.076 145.732,28.667L145.732,39.422L149.832,39.422L149.832,28.231C149.832,26.695 149.735,26.167 149.416,25.261C148.927,23.859 147.295,22.978 145.252,22.978ZM198.005,35.265C197.596,35.764 196.715,36.297 195.943,36.297C193.751,36.297 193.031,35.17 193.031,31.728C193.031,28.172 193.841,26.601 195.719,26.601C196.469,26.601 197.221,26.949 198.005,27.637L198.005,35.265ZM202.096,18.039L197.937,18.039L197.937,21.793C197.937,22.732 198.005,23.824 198.066,24.165C197.285,23.538 196.381,23.261 195.214,23.261C191.155,23.261 188.377,26.695 188.377,31.697C188.377,36.678 190.937,39.829 194.998,39.829C196.441,39.829 197.657,39.388 198.689,38.491C198.756,38.922 198.819,39.173 198.942,39.422L202.694,39.422C202.411,38.792 202.096,37.515 202.096,33.577L202.096,18.039ZM171.367,36.924C171.021,36.924 170.681,36.77 170.529,36.481C170.274,36.05 170.242,35.669 170.242,32.923L170.242,20.444C170.242,19.876 170.242,18.464 170.231,18.039L165.885,18.039C165.934,18.921 165.96,20.81 165.96,22.074L165.96,34.019C165.96,36.297 166.02,36.794 166.332,37.61C166.838,38.955 168.268,39.798 170.053,39.798C170.957,39.798 171.836,39.646 172.56,39.358L171.836,36.857C171.623,36.924 171.528,36.924 171.367,36.924ZM132.625,36.886C131.186,36.886 130.817,36.358 130.817,34.327L130.817,26.295L133.511,26.295L134.571,23.414L130.817,23.414C130.817,22.349 130.862,21.237 130.942,20.171L126.754,20.171C126.657,21.149 126.657,22.091 126.657,23.414L125.062,23.414L125.062,26.295L126.657,26.295L126.657,34.983C126.657,36.453 126.684,36.77 126.947,37.452C127.432,38.856 129.126,39.798 131.251,39.798C132.347,39.798 133.453,39.582 134.668,39.082L134.127,36.579C133.385,36.794 133.005,36.886 132.625,36.886ZM83.759,26.106L81.137,25.386C79.323,24.885 78.731,24.319 78.731,23.199C78.731,21.726 79.977,20.697 81.755,20.697C83.389,20.697 84.858,21.163 86.82,22.351L88.889,19.229C86.985,17.845 84.287,17.04 81.631,17.04C77.041,17.04 73.85,19.785 73.85,23.76C73.85,24.979 74.162,26.106 74.758,27.076C75.538,28.39 76.884,29.23 79.037,29.82L81.447,30.481C83.389,31.015 84.287,31.887 84.287,33.297C84.287,35.233 82.977,36.264 80.479,36.264C78.293,36.264 76.537,35.574 74.507,34.514L72.878,37.927C75.071,39.173 77.817,39.895 80.287,39.895C85.696,39.895 89.259,36.985 89.259,32.578C89.259,29.353 87.328,27.076 83.759,26.106ZM109.183,23.042C108.714,23.042 108.146,23.137 107.811,23.296C107.021,23.637 106.022,24.512 105.424,25.32C105.365,24.415 105.148,23.703 104.774,23.042L101.018,24.039C101.369,24.946 101.613,26.574 101.613,28.733L101.613,39.422L105.801,39.422L105.801,28.104C106.588,27.199 107.43,26.755 108.366,26.755C108.837,26.755 109.183,26.854 109.583,27.076L110.745,23.383C110.093,23.104 109.809,23.042 109.183,23.042ZM97.706,36.886C96.272,36.886 95.893,36.358 95.893,34.327L95.893,26.295L98.582,26.295L99.646,23.414L95.893,23.414C95.893,22.349 95.935,21.237 96.009,20.171L91.826,20.171C91.728,21.149 91.728,22.091 91.728,23.414L90.139,23.414L90.139,26.295L91.728,26.295L91.728,34.983C91.728,36.453 91.762,36.77 92.012,37.452C92.518,38.856 94.199,39.798 96.335,39.798C97.429,39.798 98.519,39.582 99.742,39.082L99.205,36.579C98.456,36.794 98.076,36.886 97.706,36.886ZM119.029,35.863C118.4,36.55 117.622,36.954 116.848,36.954C115.777,36.954 114.995,36.112 114.995,34.864C114.995,32.952 115.994,32.419 118.903,32.419L119.094,32.419L119.029,35.863ZM123.192,34.388L123.192,34.112L123.284,28.733C123.321,27.012 123.225,26.517 123.004,25.857C122.369,24.072 120.533,23.074 117.841,23.074C116.372,23.074 115.028,23.351 113.461,24.008C112.337,24.479 111.717,24.79 110.868,25.32L112.654,28.329C114.371,27.171 115.931,26.517 117.273,26.517C118.809,26.517 119.161,27.109 119.161,28.892L119.161,29.543C118.809,29.519 118.523,29.519 118.219,29.519C113.123,29.519 110.525,31.264 110.525,35.013C110.525,38.202 112.463,40.013 116.024,40.013C117.337,40.013 118.463,39.707 119.254,39.149C119.562,38.922 119.902,38.614 120.216,38.294C120.628,39.107 121.499,39.829 122.464,40.236L124.687,37.67C123.467,36.77 123.192,36.112 123.192,34.388Z" style="fill:white;fill-rule:nonzero;"/>
        <path d="M0.696,37.666L32.73,60.304L32.722,60.3L32.743,60.303L64.678,37.762L64.685,37.737L52.49,1.257L13.226,1.25L13.004,1.245L0.703,37.628L0.696,37.666Z" style="fill:none;stroke:rgb(35,31,32);stroke-width:1.39px;"/>
        <path d="M13.281,1.585L1.046,37.699L32.888,60.206L64.688,37.841L52.551,1.604L13.281,1.585Z" style="fill:white;fill-rule:nonzero;"/>
        <path d="M33.885,17.847L10.485,17.759L5.448,32.28C5.448,32.28 3.609,35.681 7.982,39.666C12.358,43.655 31.9,57.163 32.716,55.562L38.531,49.275L33.885,17.847Z" style="fill:rgb(233,50,42);fill-rule:nonzero;"/>
        <path d="M32.875,17.911L53.538,17.896L32.748,32.871L32.875,17.911Z" style="fill:rgb(0,115,163);fill-rule:nonzero;"/>
        <path d="M19.847,14.354C19.595,14.453 19.458,14.771 19.458,14.771" style="fill:white;fill-rule:nonzero;"/>
        <path d="M20.414,14.793C20.414,14.793 20.242,14.41 19.982,14.301" style="fill:white;fill-rule:nonzero;"/>
        <path d="M45.304,14.26C45.036,14.369 44.911,14.683 44.911,14.683" style="fill:white;fill-rule:nonzero;"/>
        <path d="M11.853,31.224C11.557,31.4 10.734,31.808 10.509,30.618C10.064,28.242 8.247,29.548 7.802,30.334C7.362,31.134 6.81,31.011 6.81,31.011C6.81,31.011 7.362,31.134 7.396,32.036C7.437,32.942 8.481,34.884 9.955,32.934C10.689,31.962 11.385,33.226 11.566,33.51L11.632,33.791C11.703,34.128 11.806,35.651 10.579,35.445C8.126,35.034 8.898,37.039 9.385,37.81C9.703,38.341 9.4,38.798 9.4,38.798C9.4,38.798 10.002,38.491 10.889,38.768C11.778,39.049 14.032,38.985 12.648,36.979C11.956,35.977 13.074,35.786 13.411,35.711L13.617,35.722C13.958,35.774 15.398,35.868 14.777,36.904C13.538,39.007 15.793,39.153 16.656,38.813C17.526,38.469 17.873,38.918 17.873,38.918C17.873,38.918 17.526,38.469 18.096,37.758C18.667,37.043 19.155,34.906 16.73,35.486C15.523,35.778 15.709,34.296 15.757,33.96C15.808,33.63 16.416,32.519 17.221,33.436C18.822,35.288 19.75,33.084 19.72,32.186C19.694,31.28 20.236,31.116 20.236,31.116C20.236,31.116 19.694,31.28 19.193,30.517C18.695,29.754 16.784,28.575 16.515,30.977C16.379,32.182 15.17,31.655 14.871,31.497C14.564,31.344 13.424,30.117 14.596,29.694C16.934,28.867 15.297,27.355 14.412,27.075C13.529,26.79 13.555,26.229 13.555,26.229C13.555,26.229 13.529,26.79 12.62,26.973C11.703,27.172 9.912,28.511 12.146,29.574C13.26,30.113 12.204,30.887 11.941,31.104L11.853,31.224Z" style="fill:white;fill-rule:nonzero;"/>
        <path d="M11.853,31.224L11.585,30.809L11.22,30.947L11.159,30.932C11.121,30.906 11.058,30.794 11.007,30.536C10.897,29.974 10.723,29.551 10.444,29.237C10.167,28.93 9.763,28.766 9.404,28.773C8.908,28.781 8.485,28.994 8.148,29.241C7.808,29.495 7.525,29.798 7.353,30.113C7.222,30.349 7.1,30.442 7.026,30.48L6.889,30.525L6.852,30.798L6.923,30.536L6.889,30.525L6.852,30.798L6.923,30.536C6.646,30.472 6.374,30.637 6.309,30.906C6.247,31.168 6.423,31.43 6.689,31.494L6.75,31.224L6.666,31.486L6.689,31.494L6.75,31.224L6.666,31.486L6.767,31.583C6.81,31.655 6.88,31.789 6.895,32.062L6.895,32.059C6.913,32.478 7.068,32.957 7.344,33.406C7.484,33.619 7.654,33.825 7.883,33.978C8.107,34.143 8.391,34.27 8.715,34.27C9.319,34.263 9.868,33.892 10.369,33.226L10.519,33.076L10.53,33.069L10.528,33.05L10.528,33.069L10.53,33.069L10.528,33.05L10.528,33.069L10.597,33.099C10.678,33.148 10.805,33.275 10.897,33.413C11,33.548 11.074,33.679 11.136,33.78L11.566,33.51L11.071,33.619L11.132,33.9C11.136,33.93 11.164,34.068 11.164,34.229C11.168,34.438 11.121,34.689 11.058,34.817L10.953,34.94L10.788,34.981L10.663,34.966C10.416,34.925 10.191,34.906 9.98,34.906C9.479,34.902 9.046,35.022 8.753,35.314C8.453,35.602 8.365,35.98 8.369,36.313C8.369,37.002 8.695,37.653 8.949,38.068L9.029,38.315L8.992,38.491L8.969,38.528L8.969,38.54L9.188,38.667L8.973,38.528L8.969,38.54L9.188,38.667L8.973,38.528C8.846,38.712 8.865,38.97 9.02,39.131C9.179,39.299 9.426,39.337 9.637,39.236L9.55,39.086L9.624,39.236L9.637,39.236L9.55,39.086L9.624,39.236C9.643,39.232 9.843,39.142 10.156,39.142C10.326,39.142 10.513,39.168 10.738,39.232C11.024,39.325 11.385,39.378 11.757,39.378C12.137,39.378 12.539,39.325 12.9,39.142C13.089,39.056 13.26,38.914 13.396,38.727C13.524,38.528 13.593,38.3 13.593,38.061C13.587,37.63 13.404,37.211 13.069,36.706C12.947,36.534 12.932,36.429 12.932,36.407L12.938,36.403L13.159,36.283L13.52,36.193L13.411,35.711L13.387,36.197L13.587,36.212L13.617,35.722L13.542,36.209C13.705,36.224 13.991,36.257 14.208,36.336L14.408,36.433L14.418,36.44C14.418,36.455 14.412,36.534 14.334,36.669C14.051,37.148 13.902,37.574 13.898,37.975C13.89,38.502 14.21,38.947 14.596,39.161C14.979,39.378 15.409,39.438 15.808,39.438C16.188,39.438 16.538,39.382 16.839,39.266C17.028,39.191 17.161,39.176 17.258,39.176L17.46,39.224L17.479,39.236L17.619,39.093L17.46,39.213L17.479,39.236L17.619,39.093L17.46,39.213C17.54,39.314 17.66,39.385 17.797,39.404C17.924,39.423 18.062,39.393 18.167,39.314C18.276,39.236 18.349,39.108 18.367,38.989C18.386,38.858 18.352,38.731 18.276,38.622L18.07,38.768L18.292,38.652L18.276,38.622L18.07,38.768L18.292,38.652L18.283,38.629L18.276,38.543C18.276,38.465 18.292,38.319 18.495,38.061C18.813,37.653 19.056,37.054 19.065,36.414C19.065,36.059 18.977,35.681 18.7,35.374C18.416,35.06 17.969,34.888 17.46,34.899C17.198,34.899 16.923,34.936 16.607,35.003L16.437,35.022L16.356,35.011L16.278,34.873C16.238,34.772 16.219,34.614 16.219,34.472C16.219,34.293 16.248,34.124 16.263,34.042L16.263,34.034L16.27,34.001L16.457,33.683L16.562,33.585L16.596,33.582L16.637,33.593L16.828,33.761C17.323,34.326 17.844,34.648 18.397,34.656C18.751,34.656 19.056,34.517 19.286,34.326C19.63,34.053 19.847,33.679 19.997,33.312C20.152,32.93 20.227,32.553 20.227,32.223L20.227,32.111C20.233,31.793 20.311,31.673 20.356,31.617L20.409,31.583L20.409,31.58L20.296,31.325L20.381,31.583L20.409,31.58L20.296,31.325L20.381,31.583C20.654,31.505 20.798,31.232 20.713,30.97C20.635,30.712 20.352,30.569 20.081,30.644L20.156,30.876L20.115,30.637L20.081,30.644L20.156,30.876L20.115,30.637L20.107,30.637C20.063,30.626 19.905,30.67 19.623,30.251C19.432,29.963 19.155,29.694 18.809,29.469C18.455,29.241 18.053,29.058 17.591,29.047C17.217,29.043 16.796,29.2 16.515,29.548C16.238,29.881 16.079,30.326 16.01,30.929C15.98,31.138 15.929,31.194 15.909,31.209L15.757,31.254C15.559,31.265 15.213,31.127 15.105,31.067L15.05,31.172L15.11,31.067L15.105,31.063L15.05,31.172L15.11,31.067C15.101,31.067 14.914,30.91 14.798,30.734C14.661,30.566 14.58,30.367 14.58,30.3L14.596,30.255L14.773,30.162C15.26,29.986 15.63,29.776 15.896,29.503C16.16,29.237 16.307,28.889 16.304,28.556C16.294,28.018 15.984,27.598 15.666,27.284C15.329,26.955 14.942,26.723 14.567,26.603C14.249,26.491 14.141,26.382 14.1,26.311L14.06,26.236L13.651,26.236L14.06,26.262L14.06,26.236L13.651,26.236L14.06,26.262L13.555,26.229L13.056,26.21L13.323,26.218L13.056,26.18L13.056,26.21L13.323,26.218L13.056,26.18L13.043,26.199C13.016,26.236 12.975,26.39 12.513,26.498C12.109,26.581 11.673,26.794 11.301,27.104C10.93,27.404 10.575,27.823 10.565,28.399C10.56,28.713 10.689,29.035 10.925,29.308C11.159,29.578 11.482,29.81 11.924,30.016C12.062,30.075 12.118,30.135 12.137,30.158L12.141,30.165L12.175,30.15L12.137,30.15L12.141,30.165L12.175,30.15L12.137,30.15L12.109,30.225C12.04,30.386 11.757,30.618 11.606,30.745L11.529,30.816L11.439,30.936L11.853,31.224L11.585,30.809L11.853,31.224L12.264,31.512L12.345,31.4L11.941,31.104L12.285,31.479C12.345,31.423 12.545,31.265 12.741,31.052C12.923,30.846 13.144,30.573 13.159,30.15C13.162,29.956 13.084,29.724 12.938,29.555C12.792,29.379 12.605,29.248 12.367,29.132C12.016,28.96 11.806,28.8 11.703,28.676C11.598,28.549 11.579,28.474 11.568,28.399C11.566,28.287 11.688,28.059 11.941,27.849C12.189,27.654 12.539,27.501 12.717,27.456C13.275,27.351 13.643,27.089 13.836,26.824C14.038,26.554 14.06,26.318 14.06,26.255C14.081,25.989 13.866,25.753 13.583,25.735C13.308,25.724 13.069,25.929 13.056,26.199L13.046,26.236C13.046,26.334 13.069,26.573 13.237,26.846C13.421,27.108 13.748,27.378 14.253,27.535C14.427,27.591 14.732,27.763 14.957,27.98C15.179,28.193 15.297,28.444 15.288,28.556L15.159,28.822C15.05,28.949 14.82,29.091 14.418,29.241C14.165,29.331 13.944,29.469 13.795,29.66C13.636,29.847 13.565,30.09 13.57,30.3C13.58,30.734 13.785,31.067 13.982,31.344C14.094,31.479 14.197,31.587 14.304,31.692C14.412,31.793 14.496,31.868 14.631,31.931C14.824,32.029 15.241,32.231 15.757,32.242C16.01,32.242 16.319,32.171 16.584,31.954C16.835,31.733 16.983,31.404 17.018,31.026C17.075,30.547 17.198,30.285 17.297,30.165C17.404,30.057 17.46,30.042 17.591,30.038C17.741,30.03 18.004,30.124 18.238,30.281C18.472,30.431 18.678,30.637 18.766,30.779C19.178,31.43 19.763,31.636 20.107,31.625C20.25,31.625 20.347,31.598 20.381,31.583L20.686,31.344L20.713,30.97L20.47,30.678L20.081,30.644C20.025,30.67 19.81,30.745 19.591,30.977C19.379,31.205 19.211,31.598 19.211,32.111L19.211,32.223C19.215,32.448 19.114,32.889 18.934,33.204C18.844,33.368 18.738,33.495 18.644,33.57L18.397,33.668C18.283,33.671 18.008,33.585 17.606,33.121C17.329,32.803 16.977,32.594 16.596,32.594C16.356,32.594 16.139,32.68 15.98,32.781C15.741,32.942 15.587,33.144 15.475,33.335C15.359,33.529 15.288,33.709 15.26,33.892C15.241,34.001 15.213,34.214 15.213,34.472C15.213,34.742 15.241,35.075 15.402,35.393C15.486,35.554 15.611,35.722 15.799,35.823C15.976,35.95 16.205,36.018 16.437,36.018C16.575,36.018 16.717,35.995 16.846,35.965C17.099,35.898 17.297,35.879 17.46,35.879C17.778,35.89 17.881,35.961 17.937,36.021C18.004,36.085 18.053,36.22 18.053,36.414C18.059,36.766 17.858,37.267 17.694,37.466C17.376,37.855 17.258,38.229 17.258,38.543C17.258,38.929 17.417,39.161 17.46,39.213C17.54,39.314 17.66,39.385 17.797,39.404C17.924,39.423 18.062,39.393 18.167,39.314C18.276,39.236 18.349,39.108 18.367,38.989C18.386,38.858 18.352,38.731 18.276,38.622C18.221,38.547 17.894,38.192 17.258,38.199C17.018,38.192 16.755,38.236 16.466,38.356L16.463,38.356C16.322,38.412 16.064,38.461 15.808,38.454C15.531,38.461 15.26,38.397 15.116,38.311C14.975,38.21 14.927,38.173 14.919,37.975C14.919,37.814 14.979,37.548 15.213,37.159C15.355,36.927 15.428,36.691 15.428,36.44C15.432,36.152 15.293,35.89 15.11,35.726C14.841,35.482 14.534,35.389 14.272,35.322C14.01,35.266 13.772,35.239 13.682,35.224L13.643,35.224L13.439,35.217L13.299,35.224C13.175,35.262 12.887,35.307 12.595,35.445C12.444,35.516 12.285,35.617 12.146,35.782C12.016,35.935 11.916,36.167 11.916,36.407C11.916,36.695 12.04,36.975 12.225,37.256C12.513,37.66 12.582,37.937 12.579,38.061L12.545,38.184C12.532,38.21 12.453,38.278 12.309,38.319C12.16,38.371 11.967,38.39 11.757,38.39C11.486,38.39 11.207,38.349 11.041,38.3C10.719,38.203 10.42,38.158 10.156,38.158C9.578,38.158 9.209,38.341 9.157,38.364L9.4,38.798L9.815,39.071C9.849,39.022 10.03,38.76 10.036,38.315C10.036,38.091 9.98,37.814 9.815,37.57L9.815,37.567C9.624,37.26 9.368,36.669 9.381,36.313C9.381,36.137 9.422,36.055 9.469,36.018C9.51,35.969 9.637,35.894 9.98,35.89C10.12,35.89 10.29,35.898 10.487,35.928L10.788,35.965C11.067,35.965 11.318,35.894 11.518,35.756C11.823,35.554 11.982,35.262 12.072,34.992C12.156,34.716 12.18,34.457 12.18,34.229C12.18,34.001 12.156,33.825 12.128,33.686L12.066,33.409L11.991,33.245C11.941,33.17 11.782,32.901 11.568,32.642C11.464,32.519 11.334,32.392 11.168,32.287C11.007,32.182 10.788,32.085 10.528,32.081C10.143,32.074 9.789,32.313 9.544,32.642C9.129,33.196 8.833,33.29 8.715,33.282L8.485,33.196C8.346,33.099 8.191,32.889 8.088,32.661C7.971,32.425 7.914,32.171 7.911,32.025L7.911,32.014C7.883,31.471 7.692,31.082 7.452,30.843C7.218,30.611 6.984,30.543 6.923,30.536C6.786,30.506 6.646,30.525 6.537,30.599C6.423,30.67 6.343,30.772 6.309,30.906C6.277,31.026 6.305,31.161 6.374,31.269C6.449,31.385 6.562,31.464 6.689,31.494L6.889,31.509C7.048,31.509 7.288,31.479 7.542,31.337C7.795,31.191 8.047,30.94 8.247,30.577C8.326,30.431 8.534,30.199 8.768,30.019C9.001,29.844 9.254,29.754 9.404,29.754L9.679,29.888C9.789,29.993 9.922,30.255 10.008,30.708C10.077,31.093 10.21,31.393 10.435,31.61C10.65,31.838 10.968,31.931 11.22,31.928C11.647,31.92 11.941,31.741 12.118,31.64L12.264,31.512L11.853,31.224Z" style="fill:rgb(233,50,42);fill-rule:nonzero;"/>
        <path d="M31.036,44.53C30.745,44.714 29.913,45.114 29.687,43.924C29.249,41.548 27.427,42.854 26.981,43.647C26.54,44.444 25.99,44.321 25.99,44.321C25.99,44.321 26.54,44.444 26.583,45.35C26.62,46.256 27.67,48.198 29.135,46.248C29.874,45.275 30.562,46.544 30.753,46.817L30.815,47.105C30.89,47.438 30.983,48.965 29.758,48.763C27.305,48.347 28.081,50.36 28.564,51.124C28.886,51.655 28.587,52.108 28.587,52.108C28.587,52.108 29.187,51.801 30.072,52.078C30.961,52.358 33.212,52.295 31.831,50.293C31.138,49.286 32.252,49.096 32.594,49.017L32.8,49.028C33.14,49.073 34.579,49.178 33.951,50.222C32.721,52.314 34.972,52.467 35.829,52.13C36.708,51.782 37.045,52.228 37.045,52.228C37.045,52.228 36.708,51.782 37.279,51.071C37.846,50.364 38.332,48.22 35.913,48.8C34.705,49.081 34.888,47.602 34.94,47.277C34.989,46.937 35.595,45.836 36.403,46.749C38.005,48.59 38.933,46.394 38.901,45.492C38.871,44.587 39.419,44.422 39.419,44.422C39.419,44.422 38.871,44.587 38.372,43.823C37.878,43.056 35.966,41.889 35.702,44.28C35.561,45.481 34.351,44.961 34.05,44.804C33.747,44.654 32.604,43.427 33.778,43.008C36.117,42.177 34.48,40.665 33.591,40.381C32.706,40.093 32.729,39.535 32.729,39.535C32.729,39.535 32.706,40.093 31.795,40.283C30.89,40.486 29.092,41.821 31.329,42.884C32.448,43.408 31.382,44.19 31.124,44.418L31.036,44.53Z" style="fill:white;fill-rule:nonzero;"/>
        <path d="M49.816,31.729C49.521,31.92 48.686,32.317 48.477,31.127C48.028,28.751 46.211,30.049 45.771,30.843C45.33,31.64 44.768,31.523 44.768,31.523C44.768,31.523 45.33,31.64 45.369,32.549C45.401,33.454 46.445,35.393 47.919,33.447C48.654,32.474 49.343,33.742 49.53,34.023L49.601,34.308C49.676,34.637 49.773,36.171 48.542,35.958C46.089,35.542 46.868,37.548 47.349,38.326C47.676,38.846 47.358,39.307 47.358,39.307C47.358,39.307 47.966,38.996 48.857,39.269C49.741,39.546 51.998,39.498 50.617,37.496C49.919,36.485 51.038,36.298 51.379,36.224L51.58,36.231C51.921,36.268 53.36,36.377 52.74,37.425C51.506,39.524 53.756,39.658 54.619,39.318C55.495,38.985 55.831,39.43 55.831,39.43C55.831,39.43 55.495,38.985 56.06,38.263C56.632,37.559 57.113,35.423 54.698,35.991C53.487,36.28 53.669,34.805 53.725,34.472C53.771,34.132 54.385,33.035 55.18,33.948C56.797,35.797 57.714,33.597 57.684,32.691C57.657,31.789 58.2,31.621 58.2,31.621C58.2,31.621 57.657,31.789 57.162,31.026C56.664,30.262 54.748,29.08 54.482,31.479C54.351,32.68 53.139,32.167 52.834,32.01C52.527,31.845 51.392,30.633 52.559,30.203C54.903,29.379 53.261,27.86 52.372,27.579C51.493,27.299 51.519,26.749 51.519,26.749C51.519,26.749 51.493,27.299 50.583,27.486C49.676,27.684 47.882,29.016 50.114,30.087C51.223,30.626 50.166,31.396 49.91,31.617L49.816,31.729Z" style="fill:white;fill-rule:nonzero;"/>
        <path d="M49.816,31.729L49.543,31.318L49.18,31.46L49.122,31.445C49.096,31.408 49.021,31.303 48.974,31.045C48.866,30.48 48.686,30.053 48.407,29.75C48.129,29.432 47.734,29.271 47.367,29.282C46.877,29.29 46.456,29.495 46.117,29.754C45.771,30.012 45.494,30.311 45.317,30.626C45.191,30.854 45.07,30.951 44.989,30.992L44.853,31.041L44.823,31.31L44.883,31.045L44.853,31.041L44.823,31.31L44.883,31.045C44.609,30.981 44.344,31.149 44.278,31.411C44.211,31.681 44.387,31.939 44.658,32.006L44.714,31.744L44.63,31.999L44.658,32.006L44.714,31.744L44.63,31.999L44.643,32.01C44.684,32.033 44.83,32.1 44.853,32.575C44.877,32.994 45.028,33.466 45.307,33.915C45.448,34.128 45.622,34.33 45.85,34.495C46.076,34.656 46.355,34.775 46.688,34.775C47.289,34.768 47.831,34.401 48.336,33.742L48.333,33.742L48.486,33.589L48.505,33.578L48.495,33.559L48.495,33.578L48.505,33.578L48.495,33.559L48.495,33.578L48.566,33.612C48.641,33.668 48.772,33.78 48.866,33.922C48.969,34.061 49.043,34.188 49.109,34.289L49.53,34.023L49.034,34.128L49.105,34.405C49.109,34.442 49.128,34.581 49.128,34.734C49.133,34.951 49.09,35.202 49.021,35.329L48.916,35.453L48.761,35.494L48.626,35.467C48.383,35.438 48.155,35.419 47.943,35.419C47.448,35.419 47.01,35.535 46.718,35.831C46.417,36.115 46.323,36.489 46.329,36.822C46.34,37.514 46.656,38.165 46.912,38.577L46.993,38.82L46.952,38.989L46.931,39.045L47.146,39.168L46.937,39.041L46.931,39.045L47.146,39.168L46.937,39.041C46.806,39.224 46.828,39.471 46.987,39.64C47.143,39.797 47.39,39.846 47.601,39.745L47.523,39.602L47.592,39.748L47.601,39.745L47.523,39.602L47.592,39.748C47.607,39.745 47.807,39.655 48.125,39.655C48.288,39.655 48.482,39.677 48.703,39.745L48.694,39.745C48.987,39.831 49.343,39.894 49.721,39.894C50.104,39.894 50.509,39.831 50.87,39.655C51.049,39.55 51.223,39.423 51.36,39.228C51.487,39.045 51.56,38.805 51.56,38.566C51.547,38.147 51.375,37.713 51.038,37.211C50.914,37.043 50.898,36.938 50.898,36.916L50.902,36.912L51.122,36.792L51.481,36.695L51.379,36.224L51.347,36.71L51.547,36.725L51.58,36.231L51.511,36.725C51.68,36.736 51.966,36.766 52.179,36.841L52.372,36.942L52.385,36.957C52.385,36.968 52.378,37.047 52.301,37.178C52.015,37.66 51.88,38.087 51.874,38.484C51.865,39.018 52.179,39.46 52.559,39.666C52.943,39.894 53.369,39.943 53.771,39.943C54.159,39.943 54.51,39.894 54.81,39.771L54.81,39.778C54.999,39.7 55.128,39.681 55.218,39.681L55.42,39.733L55.44,39.748L55.583,39.606L55.42,39.718L55.44,39.748L55.583,39.606L55.42,39.718C55.504,39.827 55.624,39.898 55.756,39.917C55.888,39.932 56.026,39.902 56.134,39.827C56.243,39.748 56.312,39.625 56.331,39.498C56.355,39.363 56.318,39.232 56.235,39.131L56.026,39.284L56.262,39.157L56.235,39.131L56.026,39.284L56.262,39.157L56.252,39.138L56.235,39.056C56.235,38.985 56.262,38.832 56.464,38.57C56.776,38.162 57.025,37.563 57.029,36.916C57.029,36.568 56.945,36.19 56.668,35.879C56.383,35.561 55.934,35.393 55.429,35.404C55.171,35.404 54.894,35.445 54.576,35.516L54.411,35.535L54.314,35.52L54.235,35.37C54.207,35.277 54.192,35.127 54.192,34.974C54.192,34.798 54.211,34.637 54.22,34.551L54.235,34.513L54.421,34.188L54.529,34.098L54.557,34.087L54.613,34.102L54.797,34.266C55.292,34.831 55.813,35.157 56.37,35.157C56.711,35.157 57.019,35.03 57.253,34.831C57.599,34.562 57.811,34.188 57.966,33.821C58.116,33.447 58.191,33.062 58.191,32.736L58.191,32.631C58.196,32.306 58.28,32.182 58.325,32.134L58.378,32.092L58.378,32.085L58.271,31.838L58.355,32.092L58.378,32.085L58.271,31.838L58.355,32.092C58.617,32.018 58.771,31.744 58.683,31.475C58.598,31.22 58.314,31.075 58.054,31.153L58.125,31.381L58.082,31.149L58.054,31.153L58.125,31.381L58.082,31.149L58.075,31.149C58.026,31.142 57.873,31.183 57.586,30.756L57.586,30.76C57.399,30.476 57.113,30.203 56.776,29.974C56.425,29.757 56.022,29.563 55.556,29.563C55.18,29.555 54.759,29.72 54.482,30.049C54.202,30.39 54.048,30.835 53.977,31.434C53.953,31.651 53.893,31.707 53.88,31.726L53.725,31.767C53.524,31.774 53.182,31.632 53.074,31.572L53.017,31.677L53.077,31.576L53.074,31.572L53.017,31.677L53.077,31.576C53.068,31.572 52.881,31.415 52.759,31.243C52.625,31.075 52.546,30.873 52.55,30.813L52.559,30.764L52.737,30.67C53.227,30.502 53.601,30.277 53.865,30.016C54.127,29.75 54.278,29.398 54.278,29.065C54.267,28.534 53.964,28.111 53.635,27.785C53.293,27.467 52.905,27.239 52.537,27.119C52.209,27 52.108,26.887 52.063,26.828L52.024,26.749L52.02,26.753L52.024,26.749L52.02,26.753L51.603,26.753L52.02,26.771L52.02,26.753L51.603,26.753L52.02,26.771L51.519,26.749L51.015,26.726L51.285,26.738L51.015,26.682L51.015,26.726L51.285,26.738L51.015,26.682L51.01,26.708C50.98,26.753 50.944,26.899 50.477,27.011L50.471,27.011C50.078,27.097 49.642,27.307 49.268,27.613C48.894,27.913 48.539,28.336 48.523,28.915C48.523,29.226 48.654,29.548 48.894,29.817C49.118,30.09 49.449,30.319 49.891,30.521C50.03,30.588 50.087,30.648 50.101,30.663L50.11,30.674L50.14,30.663L50.11,30.663L50.11,30.674L50.14,30.663L50.11,30.663L50.082,30.734L49.852,31.011L49.569,31.254L49.507,31.318L49.418,31.434L49.816,31.729L49.543,31.318L49.816,31.729L50.218,32.033L50.308,31.924L49.91,31.617L50.241,31.991C50.312,31.928 50.522,31.774 50.705,31.561C50.89,31.363 51.107,31.082 51.122,30.663C51.122,30.465 51.042,30.236 50.902,30.061C50.761,29.885 50.574,29.757 50.34,29.641C49.985,29.473 49.777,29.308 49.67,29.177C49.562,29.058 49.543,28.986 49.543,28.915C49.53,28.8 49.667,28.564 49.919,28.358C50.157,28.163 50.503,28.01 50.692,27.965C51.238,27.857 51.609,27.602 51.805,27.336C52.002,27.071 52.02,26.831 52.02,26.764C52.039,26.494 51.829,26.266 51.543,26.251C51.262,26.236 51.032,26.438 51.015,26.715L51.015,26.753C51.015,26.839 51.032,27.082 51.201,27.351C51.384,27.621 51.706,27.883 52.222,28.047C52.391,28.103 52.705,28.276 52.918,28.496C53.152,28.71 53.266,28.953 53.257,29.065L53.13,29.338C53.008,29.458 52.784,29.604 52.385,29.754C52.132,29.844 51.914,29.974 51.762,30.173C51.599,30.356 51.538,30.599 51.538,30.813C51.543,31.243 51.755,31.576 51.958,31.853C52.063,31.988 52.172,32.1 52.273,32.197L52.591,32.44C52.793,32.534 53.205,32.74 53.725,32.751C53.977,32.751 54.286,32.68 54.544,32.463C54.806,32.249 54.95,31.92 54.988,31.539C55.046,31.06 55.171,30.798 55.27,30.674C55.371,30.573 55.429,30.555 55.556,30.539C55.715,30.539 55.972,30.637 56.196,30.786C56.436,30.944 56.638,31.149 56.724,31.288L56.729,31.288C57.141,31.939 57.732,32.145 58.075,32.134C58.213,32.134 58.314,32.104 58.355,32.092C58.484,32.055 58.589,31.973 58.643,31.853C58.716,31.744 58.724,31.61 58.683,31.475L58.439,31.194L58.054,31.153C57.989,31.183 57.764,31.254 57.564,31.479C57.343,31.726 57.175,32.111 57.175,32.631L57.178,32.706L57.178,32.736C57.184,32.964 57.081,33.398 56.892,33.713C56.808,33.873 56.701,34.008 56.613,34.083L56.37,34.173C56.252,34.177 55.975,34.098 55.569,33.634C55.296,33.312 54.946,33.106 54.557,33.106C54.318,33.106 54.108,33.185 53.947,33.294C53.704,33.454 53.551,33.653 53.435,33.844C53.322,34.042 53.251,34.218 53.218,34.401C53.205,34.513 53.182,34.73 53.182,34.974C53.182,35.254 53.205,35.58 53.36,35.909C53.444,36.059 53.579,36.227 53.764,36.336C53.943,36.463 54.177,36.519 54.411,36.519C54.544,36.519 54.681,36.504 54.819,36.47C55.072,36.41 55.274,36.392 55.429,36.392C55.742,36.396 55.843,36.467 55.901,36.527C55.972,36.594 56.017,36.728 56.017,36.916C56.026,37.275 55.822,37.78 55.657,37.971C55.345,38.36 55.218,38.746 55.218,39.056C55.218,39.438 55.386,39.666 55.42,39.718C55.592,39.939 55.91,39.988 56.134,39.827C56.365,39.658 56.406,39.355 56.235,39.131C56.191,39.056 55.854,38.704 55.218,38.708C54.988,38.708 54.722,38.746 54.43,38.869C54.292,38.914 54.028,38.966 53.771,38.963C53.5,38.966 53.227,38.91 53.083,38.82C52.939,38.723 52.9,38.678 52.883,38.484C52.883,38.33 52.952,38.057 53.182,37.668C53.317,37.436 53.395,37.204 53.395,36.957C53.403,36.657 53.261,36.396 53.077,36.235C52.806,35.991 52.501,35.909 52.241,35.838C51.983,35.774 51.736,35.759 51.652,35.741L51.609,35.741L51.412,35.733L51.266,35.741C51.141,35.767 50.851,35.816 50.565,35.958C50.411,36.021 50.247,36.126 50.114,36.298C49.981,36.444 49.886,36.672 49.886,36.916C49.886,37.211 49.998,37.485 50.194,37.761C50.477,38.165 50.551,38.45 50.546,38.566L50.522,38.689C50.495,38.723 50.424,38.787 50.273,38.832C50.131,38.873 49.928,38.899 49.721,38.899C49.453,38.899 49.175,38.858 49.004,38.805C48.683,38.708 48.389,38.659 48.125,38.659C47.541,38.659 47.171,38.846 47.124,38.873L47.358,39.307L47.784,39.584C47.812,39.531 48,39.266 48.005,38.82C48.005,38.592 47.943,38.33 47.788,38.072L47.784,38.072C47.588,37.769 47.33,37.178 47.339,36.822C47.345,36.65 47.386,36.568 47.438,36.523C47.489,36.474 47.607,36.403 47.943,36.403C48.084,36.403 48.252,36.41 48.458,36.44L48.761,36.47C49.025,36.47 49.283,36.403 49.489,36.261C49.792,36.059 49.951,35.767 50.035,35.505C50.123,35.221 50.144,34.966 50.149,34.734C50.144,34.513 50.123,34.337 50.097,34.195L50.035,33.922L49.964,33.754C49.91,33.675 49.76,33.421 49.539,33.155C49.427,33.035 49.3,32.901 49.133,32.796C48.969,32.68 48.757,32.594 48.495,32.594C48.112,32.583 47.76,32.818 47.513,33.151C47.098,33.709 46.797,33.799 46.688,33.791L46.445,33.705C46.314,33.615 46.151,33.398 46.046,33.166C45.942,32.934 45.878,32.669 45.878,32.53C45.85,31.988 45.653,31.587 45.421,31.359C45.187,31.119 44.948,31.06 44.883,31.045C44.75,31.018 44.609,31.037 44.505,31.108C44.39,31.183 44.306,31.284 44.278,31.411C44.25,31.539 44.273,31.677 44.344,31.782C44.413,31.894 44.525,31.973 44.658,32.006L44.853,32.021C45.012,32.021 45.255,31.988 45.509,31.842C45.762,31.699 46.011,31.452 46.216,31.082C46.297,30.944 46.499,30.704 46.725,30.532C46.961,30.356 47.217,30.259 47.367,30.262L47.648,30.401C47.756,30.513 47.893,30.76 47.977,31.213C48.041,31.602 48.175,31.905 48.402,32.119C48.617,32.347 48.931,32.44 49.18,32.437C49.618,32.429 49.919,32.253 50.091,32.148L50.218,32.033L49.816,31.729Z" style="fill:rgb(6,32,62);fill-rule:nonzero;"/>
        <path d="M11.853,31.224C11.557,31.4 10.734,31.808 10.509,30.618C10.064,28.242 8.247,29.548 7.802,30.334C7.362,31.134 6.81,31.011 6.81,31.011C6.81,31.011 7.362,31.134 7.396,32.036C7.437,32.942 8.481,34.884 9.955,32.934C10.689,31.962 11.385,33.226 11.566,33.51L11.632,33.791C11.703,34.128 11.806,35.651 10.579,35.445C8.126,35.034 8.898,37.039 9.385,37.81C9.703,38.341 9.4,38.798 9.4,38.798C9.4,38.798 10.002,38.491 10.889,38.768C11.778,39.049 14.032,38.985 12.648,36.979C11.956,35.977 13.074,35.786 13.411,35.711L13.617,35.722C13.958,35.774 15.398,35.868 14.777,36.904C13.538,39.007 15.793,39.153 16.656,38.813C17.526,38.469 17.873,38.918 17.873,38.918C17.873,38.918 17.526,38.469 18.096,37.758C18.667,37.043 19.155,34.906 16.73,35.486C15.523,35.778 15.709,34.296 15.757,33.96C15.808,33.63 16.416,32.519 17.221,33.436C18.822,35.288 19.75,33.084 19.72,32.186C19.694,31.28 20.236,31.116 20.236,31.116C20.236,31.116 19.694,31.28 19.193,30.517C18.695,29.754 16.784,28.575 16.515,30.977C16.379,32.182 15.17,31.655 14.871,31.497C14.564,31.344 13.424,30.117 14.596,29.694C16.934,28.867 15.297,27.355 14.412,27.075C13.529,26.79 13.555,26.229 13.555,26.229C13.555,26.229 13.529,26.79 12.62,26.973C11.703,27.172 9.912,28.511 12.146,29.574C13.26,30.113 12.204,30.887 11.941,31.104L11.853,31.224Z" style="fill:white;fill-rule:nonzero;"/>
        <path d="M13.677,34.379C14.322,34.416 14.871,33.881 14.912,33.207C14.942,32.526 14.463,31.95 13.823,31.92C13.185,31.883 12.639,32.41 12.605,33.088C12.558,33.765 13.052,34.341 13.677,34.379Z" style="fill:rgb(233,50,42);fill-rule:nonzero;"/>
        <path d="M13.677,34.379L13.673,34.48L13.742,34.48C14.421,34.48 14.975,33.922 15.007,33.211L15.011,33.14C15.011,32.44 14.513,31.849 13.827,31.823L13.761,31.823C13.087,31.823 12.539,32.369 12.504,33.084L12.504,33.163C12.504,33.855 13.009,34.446 13.673,34.48L13.677,34.379L13.692,34.278C13.144,34.255 12.704,33.765 12.704,33.163L12.708,33.091C12.738,32.481 13.215,32.021 13.761,32.021L13.817,32.021C14.375,32.044 14.811,32.53 14.811,33.14L14.811,33.207C14.773,33.821 14.296,34.281 13.742,34.278L13.692,34.278L13.677,34.379Z" style="fill:rgb(233,50,42);fill-rule:nonzero;"/>
        <path d="M13.462,29.032C13.894,29.05 14.262,28.732 14.283,28.313C14.306,27.898 13.973,27.542 13.546,27.52C13.116,27.497 12.751,27.815 12.726,28.238C12.7,28.654 13.037,29.005 13.462,29.032Z" style="fill:rgb(233,50,42);fill-rule:nonzero;"/>
        <path d="M13.462,29.032L13.452,29.136L13.509,29.136C13.973,29.136 14.365,28.773 14.39,28.321L14.393,28.268C14.393,27.815 14.023,27.445 13.55,27.419L13.507,27.419C13.037,27.419 12.652,27.774 12.627,28.223L12.627,28.268C12.627,28.728 12.985,29.103 13.452,29.136L13.462,29.032L13.471,28.927C13.112,28.915 12.826,28.616 12.826,28.268L12.826,28.238C12.85,27.89 13.147,27.625 13.507,27.625L13.536,27.625C13.905,27.632 14.182,27.928 14.182,28.268L14.178,28.313C14.163,28.657 13.86,28.927 13.509,28.927L13.471,28.927L13.462,29.032Z" style="fill:rgb(233,50,42);fill-rule:nonzero;"/>
        <path d="M8.94,32.444C9.372,32.474 9.735,32.152 9.761,31.737C9.785,31.314 9.456,30.962 9.028,30.936C8.599,30.917 8.229,31.232 8.21,31.655C8.189,32.077 8.509,32.425 8.94,32.444Z" style="fill:rgb(233,50,42);fill-rule:nonzero;"/>
        <path d="M8.94,32.444L8.927,32.549L8.981,32.553C9.456,32.553 9.839,32.193 9.868,31.741L9.868,31.692C9.868,31.239 9.497,30.869 9.035,30.835L8.992,30.835C8.519,30.835 8.13,31.191 8.105,31.655L8.105,31.692C8.105,32.145 8.463,32.526 8.927,32.549L8.94,32.444L8.943,32.347C8.593,32.328 8.303,32.033 8.303,31.692L8.303,31.658C8.328,31.303 8.631,31.041 8.992,31.041L9.02,31.041L9.028,30.936L9.02,31.041C9.379,31.056 9.656,31.355 9.656,31.692L9.656,31.726C9.643,32.085 9.342,32.351 8.981,32.351L8.943,32.347L8.94,32.444Z" style="fill:rgb(233,50,42);fill-rule:nonzero;"/>
        <path d="M18.261,32.68C18.693,32.706 19.056,32.384 19.075,31.973C19.106,31.55 18.77,31.202 18.336,31.183C17.913,31.153 17.544,31.475 17.522,31.89C17.503,32.313 17.829,32.665 18.261,32.68Z" style="fill:rgb(233,50,42);fill-rule:nonzero;"/>
        <path d="M18.261,32.68L18.251,32.788L18.302,32.788C18.77,32.788 19.159,32.425 19.187,31.976L19.187,31.92C19.187,31.475 18.822,31.097 18.345,31.075L18.296,31.071C17.834,31.071 17.447,31.43 17.422,31.887L17.422,31.931C17.415,32.384 17.784,32.758 18.251,32.788L18.261,32.68L18.266,32.586C17.898,32.568 17.619,32.272 17.619,31.931L17.625,31.898C17.643,31.546 17.946,31.277 18.296,31.277L18.332,31.277C18.693,31.288 18.977,31.583 18.977,31.92L18.972,31.958L18.972,31.973C18.964,32.317 18.663,32.586 18.302,32.586L18.266,32.586L18.261,32.68Z" style="fill:rgb(233,50,42);fill-rule:nonzero;"/>
        <path d="M16.41,38.147C16.833,38.169 17.206,37.847 17.232,37.436C17.249,37.009 16.923,36.657 16.5,36.639C16.06,36.616 15.701,36.931 15.671,37.35C15.649,37.765 15.98,38.121 16.41,38.147Z" style="fill:rgb(233,50,42);fill-rule:nonzero;"/>
        <path d="M16.41,38.147L16.401,38.248L16.451,38.248C16.917,38.248 17.301,37.892 17.333,37.439L17.333,37.395C17.333,36.934 16.972,36.564 16.5,36.534L16.451,36.534C15.98,36.534 15.596,36.889 15.567,37.35L15.567,37.395C15.567,37.847 15.933,38.225 16.401,38.248L16.407,38.248L16.401,38.248L16.41,38.147L16.418,38.05C16.051,38.023 15.774,37.731 15.774,37.395L15.78,37.353C15.802,37.006 16.089,36.74 16.451,36.74L16.491,36.74C16.844,36.751 17.131,37.047 17.131,37.395L17.127,37.428C17.108,37.776 16.803,38.053 16.451,38.053L16.418,38.05L16.41,38.147L16.418,38.05L16.41,38.147Z" style="fill:rgb(233,50,42);fill-rule:nonzero;"/>
        <path d="M10.738,37.859C11.168,37.885 11.533,37.563 11.552,37.144C11.581,36.728 11.246,36.373 10.826,36.354C10.391,36.332 10.021,36.643 10.002,37.065C9.978,37.481 10.313,37.832 10.738,37.859Z" style="fill:rgb(233,50,42);fill-rule:nonzero;"/>
        <path d="M10.738,37.859L10.734,37.96L10.782,37.96C11.246,37.96 11.641,37.6 11.662,37.151L11.662,37.103C11.662,36.654 11.299,36.268 10.826,36.246L10.779,36.246C10.313,36.246 9.924,36.601 9.905,37.054L9.896,37.103C9.896,37.563 10.261,37.941 10.734,37.96L10.738,37.859L10.747,37.758C10.388,37.743 10.102,37.458 10.102,37.103L10.102,37.069C10.118,36.714 10.42,36.448 10.779,36.448L10.812,36.448C11.183,36.463 11.454,36.762 11.454,37.103L11.454,37.144C11.441,37.492 11.131,37.758 10.782,37.758L10.747,37.758L10.738,37.859Z" style="fill:rgb(233,50,42);fill-rule:nonzero;"/>
        <path d="M13.509,28.657C13.888,28.676 14.225,28.392 14.249,28.018C14.268,27.636 13.967,27.318 13.57,27.295C13.19,27.276 12.867,27.565 12.84,27.939C12.816,28.317 13.116,28.635 13.509,28.657Z" style="fill:white;fill-rule:nonzero;"/>
        <path d="M13.509,28.657L13.499,28.758L13.538,28.758C13.967,28.758 14.322,28.44 14.345,28.021L14.345,27.987C14.356,27.565 14.016,27.22 13.58,27.202L13.538,27.202C13.11,27.202 12.764,27.52 12.738,27.931L12.84,27.939L12.738,27.928L12.738,27.987C12.738,28.395 13.074,28.732 13.499,28.758L13.509,28.657L13.512,28.56C13.19,28.545 12.947,28.294 12.947,27.987L12.947,27.943L12.947,27.95C12.968,27.636 13.224,27.396 13.538,27.396L13.565,27.396C13.892,27.415 14.141,27.677 14.141,27.987L14.141,28.018C14.118,28.317 13.856,28.56 13.538,28.56L13.509,28.56L13.509,28.657L13.512,28.56L13.509,28.657Z" style="fill:white;fill-rule:nonzero;"/>
        <path d="M8.945,31.958C9.338,31.98 9.665,31.692 9.684,31.314C9.705,30.944 9.413,30.626 9.02,30.607C8.637,30.577 8.303,30.869 8.279,31.243C8.262,31.613 8.565,31.935 8.945,31.958Z" style="fill:white;fill-rule:nonzero;"/>
        <path d="M8.945,31.958L8.936,32.062L8.986,32.062C9.413,32.062 9.765,31.737 9.787,31.322L9.684,31.314L9.787,31.322L9.791,31.273C9.791,30.861 9.46,30.521 9.026,30.502L8.986,30.502C8.556,30.502 8.206,30.82 8.182,31.239L8.176,31.28C8.176,31.692 8.513,32.04 8.936,32.062L8.945,31.958L8.955,31.86C8.637,31.842 8.384,31.587 8.384,31.28L8.384,31.251C8.403,30.944 8.668,30.704 8.986,30.704L9.016,30.704C9.338,30.719 9.581,30.966 9.581,31.273L9.578,31.307C9.564,31.613 9.306,31.86 8.986,31.86L8.955,31.86L8.945,31.958Z" style="fill:white;fill-rule:nonzero;"/>
        <path d="M18.264,32.197C18.654,32.22 18.99,31.928 19.005,31.546C19.022,31.176 18.729,30.858 18.339,30.831C17.958,30.816 17.623,31.101 17.6,31.471C17.582,31.853 17.887,32.171 18.264,32.197Z" style="fill:white;fill-rule:nonzero;"/>
        <path d="M18.264,32.197L18.259,32.298L18.304,32.298C18.732,32.298 19.086,31.976 19.112,31.55L19.112,31.52C19.112,31.108 18.775,30.753 18.349,30.734L18.304,30.734C17.883,30.734 17.52,31.052 17.497,31.467L17.497,31.512C17.497,31.928 17.834,32.265 18.259,32.298L18.264,32.197L18.274,32.089C17.958,32.081 17.703,31.823 17.703,31.512L17.703,31.49C17.718,31.176 17.989,30.936 18.304,30.936L18.33,30.936C18.654,30.951 18.901,31.205 18.901,31.52L18.901,31.542C18.887,31.853 18.616,32.089 18.304,32.089L18.274,32.089L18.264,32.197Z" style="fill:white;fill-rule:nonzero;"/>
        <path d="M16.388,37.739C16.781,37.758 17.108,37.47 17.131,37.088C17.148,36.717 16.852,36.399 16.468,36.373C16.073,36.351 15.742,36.65 15.724,37.028C15.711,37.395 15.999,37.716 16.388,37.739Z" style="fill:white;fill-rule:nonzero;"/>
        <path d="M16.388,37.739L16.388,37.836L16.416,37.844C16.846,37.836 17.207,37.514 17.235,37.092L17.235,37.062C17.235,36.643 16.904,36.302 16.472,36.276L16.42,36.276C15.995,36.276 15.64,36.598 15.619,37.024L15.619,37.062C15.619,37.473 15.963,37.817 16.384,37.836L16.388,37.836L16.388,37.739L16.397,37.63C16.073,37.615 15.83,37.368 15.83,37.062L15.83,37.032C15.84,36.717 16.109,36.482 16.42,36.482L16.459,36.482C16.781,36.493 17.03,36.747 17.03,37.062L17.03,37.084C17.011,37.395 16.738,37.63 16.416,37.63L16.397,37.63L16.388,37.739L16.397,37.63L16.388,37.739Z" style="fill:white;fill-rule:nonzero;"/>
        <path d="M10.747,37.488C11.127,37.507 11.458,37.211 11.482,36.837C11.495,36.463 11.205,36.145 10.818,36.119C10.433,36.1 10.096,36.396 10.083,36.77C10.058,37.14 10.358,37.462 10.747,37.488Z" style="fill:white;fill-rule:nonzero;"/>
        <path d="M10.747,37.488L10.747,37.585L10.786,37.589C11.205,37.589 11.561,37.267 11.574,36.845L11.574,36.8C11.574,36.396 11.252,36.04 10.827,36.025L10.786,36.025C10.354,36.025 9.998,36.339 9.974,36.766L9.974,36.8C9.974,37.211 10.313,37.556 10.743,37.585L10.747,37.585L10.747,37.488L10.756,37.383C10.433,37.368 10.18,37.107 10.18,36.8L10.18,36.777C10.199,36.463 10.464,36.227 10.786,36.227L10.812,36.227C11.127,36.242 11.383,36.493 11.383,36.8L11.379,36.83C11.366,37.144 11.093,37.383 10.786,37.383L10.756,37.383L10.747,37.488L10.756,37.383L10.747,37.488Z" style="fill:white;fill-rule:nonzero;"/>
        <path d="M13.714,33.847C14.328,33.877 14.863,33.424 14.889,32.833C14.921,32.231 14.44,31.726 13.836,31.696C13.218,31.658 12.695,32.122 12.667,32.714C12.639,33.305 13.106,33.817 13.714,33.847Z" style="fill:white;fill-rule:nonzero;"/>
        <path d="M13.714,33.847L13.71,33.948L13.77,33.952C14.421,33.952 14.96,33.462 14.988,32.833L14.988,32.773C14.988,32.148 14.493,31.632 13.842,31.598L13.77,31.595C13.131,31.595 12.595,32.085 12.562,32.702L12.562,32.773C12.562,33.398 13.063,33.911 13.71,33.948L13.714,33.847L13.72,33.742C13.19,33.72 12.764,33.286 12.764,32.773L12.771,32.725C12.796,32.201 13.241,31.793 13.77,31.793L13.834,31.793C14.367,31.815 14.788,32.253 14.788,32.773L14.788,32.826C14.758,33.346 14.309,33.742 13.77,33.742L13.72,33.742L13.714,33.847Z" style="fill:white;fill-rule:nonzero;"/>
        <path d="M32.663,37.597L32.716,55.565C32.716,55.565 34.811,55.846 40.843,51.184C46.875,46.514 46.548,47.449 46.548,47.449L46.899,47.161L32.663,37.597Z" style="fill:rgb(0,115,163);fill-rule:nonzero;"/>
        <path d="M31.036,44.534C30.745,44.714 29.913,45.114 29.687,43.928C29.249,41.556 27.427,42.854 26.981,43.655C26.54,44.444 25.99,44.321 25.99,44.321C25.99,44.321 26.54,44.444 26.583,45.35C26.62,46.256 27.67,48.198 29.135,46.244C29.874,45.275 30.562,46.54 30.753,46.817L30.815,47.105C30.89,47.43 30.983,48.965 29.758,48.763C27.305,48.347 28.081,50.353 28.564,51.127C28.886,51.655 28.587,52.104 28.587,52.104C28.587,52.104 29.187,51.801 30.072,52.078C30.961,52.358 33.212,52.295 31.831,50.293C31.138,49.286 32.252,49.096 32.594,49.021L32.8,49.028C33.14,49.073 34.579,49.178 33.951,50.222C32.721,52.31 34.972,52.467 35.829,52.123C36.708,51.782 37.045,52.231 37.045,52.231C37.045,52.231 36.708,51.782 37.279,51.071C37.846,50.364 38.332,48.213 35.913,48.8C34.705,49.081 34.888,47.61 34.94,47.281C34.989,46.937 35.595,45.825 36.403,46.746C38.005,48.594 38.933,46.398 38.901,45.481C38.871,44.59 39.419,44.426 39.419,44.426C39.419,44.426 38.871,44.59 38.372,43.823C37.878,43.06 35.966,41.885 35.702,44.28C35.561,45.481 34.351,44.965 34.05,44.807C33.747,44.654 32.604,43.427 33.778,43.004C36.117,42.177 34.48,40.665 33.591,40.373C32.706,40.096 32.729,39.542 32.729,39.542C32.729,39.542 32.706,40.096 31.795,40.287C30.89,40.482 29.092,41.821 31.329,42.88C32.448,43.415 31.382,44.19 31.124,44.418L31.036,44.534Z" style="fill:white;fill-rule:nonzero;"/>
        <path d="M28.123,45.762C28.558,45.78 28.925,45.466 28.944,45.047C28.97,44.624 28.633,44.272 28.203,44.25C27.776,44.227 27.408,44.545 27.387,44.968C27.361,45.384 27.692,45.735 28.123,45.762Z" style="fill:rgb(233,50,42);fill-rule:nonzero;"/>
        <path d="M28.123,45.762L28.119,45.866L28.164,45.866C28.633,45.866 29.022,45.5 29.047,45.054L29.047,45.002C29.047,44.545 28.68,44.175 28.214,44.141L28.171,44.138C27.707,44.138 27.303,44.497 27.284,44.968L27.284,45.006C27.284,45.458 27.647,45.833 28.119,45.866L28.123,45.762L28.134,45.653C27.758,45.634 27.488,45.346 27.488,45.006L27.488,44.972C27.511,44.616 27.816,44.343 28.171,44.343L28.194,44.347C28.558,44.366 28.839,44.662 28.839,45.002L28.834,45.043C28.826,45.387 28.527,45.653 28.164,45.653L28.134,45.653L28.123,45.762Z" style="fill:rgb(233,50,42);fill-rule:nonzero;"/>
        <path d="M37.444,46.001C37.874,46.023 38.244,45.702 38.263,45.275C38.286,44.863 37.949,44.512 37.518,44.478C37.094,44.463 36.723,44.785 36.701,45.204C36.686,45.619 37.013,45.964 37.444,46.001Z" style="fill:rgb(0,115,163);fill-rule:nonzero;"/>
        <path d="M37.444,46.001L37.434,46.098L37.485,46.098C37.953,46.098 38.342,45.739 38.364,45.283L38.263,45.275L38.364,45.29L38.364,45.234C38.364,44.789 37.995,44.407 37.524,44.377L37.485,44.377C37.019,44.377 36.624,44.736 36.598,45.193L36.598,45.234C36.598,45.694 36.967,46.072 37.434,46.098L37.444,46.001L37.447,45.892C37.084,45.877 36.802,45.589 36.802,45.234L36.807,45.208C36.824,44.856 37.129,44.587 37.485,44.587L37.515,44.587L37.518,44.478L37.515,44.587C37.874,44.605 38.164,44.89 38.164,45.234L38.155,45.271L38.155,45.275C38.141,45.619 37.846,45.892 37.485,45.892L37.447,45.892L37.444,46.001Z" style="fill:rgb(0,115,163);fill-rule:nonzero;"/>
        <path d="M35.595,51.461C36.016,51.479 36.39,51.154 36.418,50.75C36.441,50.323 36.104,49.975 35.679,49.949C35.243,49.923 34.884,50.237 34.854,50.663C34.826,51.079 35.163,51.431 35.595,51.461Z" style="fill:rgb(0,115,163);fill-rule:nonzero;"/>
        <path d="M35.595,51.461L35.584,51.558L35.636,51.561C36.095,51.561 36.484,51.202 36.521,50.75L36.521,50.705C36.521,50.248 36.153,49.874 35.683,49.844L35.642,49.844C35.163,49.844 34.779,50.199 34.751,50.652L34.751,50.708C34.751,51.154 35.118,51.528 35.584,51.558L35.595,51.461L35.601,51.356C35.236,51.341 34.953,51.041 34.953,50.708L34.959,50.663C34.981,50.312 35.273,50.05 35.642,50.05L35.668,50.05C36.029,50.065 36.312,50.364 36.312,50.705L36.312,50.735L36.312,50.727C36.297,51.086 35.982,51.356 35.636,51.356L35.601,51.356L35.595,51.461Z" style="fill:rgb(0,115,163);fill-rule:nonzero;"/>
        <path d="M29.921,51.169C30.353,51.195 30.721,50.869 30.745,50.45C30.764,50.039 30.427,49.679 30.005,49.653C29.571,49.635 29.2,49.953 29.181,50.375C29.153,50.794 29.486,51.146 29.921,51.169Z" style="fill:rgb(233,50,42);fill-rule:nonzero;"/>
        <path d="M29.921,51.169L29.911,51.27L29.954,51.27C30.427,51.27 30.815,50.907 30.843,50.461L30.843,50.409C30.843,49.967 30.478,49.586 30.005,49.56L29.96,49.556C29.49,49.556 29.101,49.908 29.075,50.368L29.075,50.42C29.075,50.873 29.443,51.243 29.911,51.27L29.921,51.169L29.924,51.068C29.565,51.045 29.279,50.761 29.279,50.42L29.279,50.383C29.298,50.027 29.603,49.758 29.96,49.758L29.995,49.758C30.353,49.777 30.641,50.068 30.641,50.409L30.637,50.443L30.745,50.45L30.637,50.443C30.615,50.794 30.319,51.068 29.954,51.068L29.924,51.068L29.921,51.169Z" style="fill:rgb(233,50,42);fill-rule:nonzero;"/>
        <path d="M28.132,45.271C28.521,45.29 28.848,45.006 28.863,44.628C28.886,44.25 28.596,43.928 28.203,43.913C27.814,43.891 27.49,44.179 27.468,44.553C27.445,44.927 27.739,45.245 28.132,45.271Z" style="fill:white;fill-rule:nonzero;"/>
        <path d="M28.132,45.271L28.123,45.369L28.166,45.373C28.596,45.373 28.953,45.051 28.978,44.628L28.978,44.583C28.978,44.175 28.633,43.823 28.203,43.812L28.203,43.913L28.207,43.812L28.166,43.812C27.739,43.812 27.389,44.13 27.355,44.542L27.355,44.594C27.355,45.006 27.7,45.35 28.123,45.369L28.132,45.271L28.137,45.17C27.814,45.155 27.565,44.901 27.565,44.594L27.565,44.56C27.585,44.25 27.853,44.01 28.166,44.01L28.194,44.014C28.521,44.025 28.764,44.276 28.764,44.583L28.764,44.616C28.751,44.927 28.484,45.174 28.166,45.174L28.137,45.17L28.132,45.271Z" style="fill:white;fill-rule:nonzero;"/>
        <path d="M37.444,45.5C37.837,45.522 38.173,45.23 38.188,44.856C38.205,44.482 37.911,44.164 37.518,44.141C37.135,44.119 36.807,44.407 36.789,44.792C36.761,45.163 37.064,45.481 37.444,45.5Z" style="fill:white;fill-rule:nonzero;"/>
        <path d="M37.444,45.5L37.44,45.608L37.485,45.608C37.911,45.608 38.267,45.283 38.291,44.867L38.291,44.83C38.291,44.415 37.958,44.063 37.524,44.044L37.483,44.044C37.06,44.044 36.705,44.369 36.675,44.789L36.675,44.822C36.675,45.234 37.013,45.586 37.44,45.608L37.444,45.5L37.453,45.402C37.135,45.387 36.886,45.125 36.886,44.822L36.886,44.792C36.905,44.482 37.172,44.246 37.483,44.246L37.518,44.246C37.837,44.261 38.085,44.519 38.085,44.83L38.085,44.856L38.188,44.856L38.085,44.856C38.07,45.163 37.805,45.402 37.485,45.402L37.453,45.402L37.444,45.5Z" style="fill:white;fill-rule:nonzero;"/>
        <path d="M35.571,51.045C35.964,51.068 36.297,50.779 36.31,50.402C36.334,50.027 36.035,49.706 35.646,49.683C35.262,49.657 34.925,49.956 34.907,50.342C34.888,50.701 35.191,51.023 35.571,51.045Z" style="fill:white;fill-rule:nonzero;"/>
        <path d="M35.571,51.045L35.571,51.15L35.604,51.154C36.029,51.154 36.394,50.832 36.416,50.409L36.416,50.368C36.416,49.956 36.089,49.616 35.651,49.586L35.616,49.586C35.187,49.586 34.826,49.904 34.804,50.33L34.804,50.368C34.804,50.779 35.14,51.127 35.567,51.15L35.571,51.15L35.571,51.045L35.58,50.944C35.262,50.929 35.009,50.675 35.009,50.368L35.009,50.342C35.028,50.031 35.3,49.788 35.616,49.788L35.642,49.788C35.964,49.803 36.203,50.054 36.203,50.368L36.203,50.39C36.194,50.701 35.923,50.944 35.604,50.944L35.58,50.944L35.571,51.045L35.58,50.944L35.571,51.045Z" style="fill:white;fill-rule:nonzero;"/>
        <path d="M29.926,50.798C30.31,50.821 30.646,50.518 30.661,50.151C30.678,49.773 30.379,49.455 29.992,49.429C29.612,49.41 29.275,49.702 29.26,50.083C29.241,50.446 29.543,50.772 29.926,50.798Z" style="fill:white;fill-rule:nonzero;"/>
        <path d="M29.926,50.798L29.926,50.896L29.963,50.896C30.383,50.896 30.745,50.574 30.766,50.162L30.766,50.11C30.766,49.702 30.431,49.354 30.007,49.328L29.958,49.324C29.533,49.324 29.176,49.646 29.157,50.068L29.157,50.11C29.157,50.518 29.484,50.865 29.923,50.896L29.926,50.798L29.935,50.69C29.617,50.671 29.365,50.42 29.365,50.11L29.365,50.087C29.384,49.769 29.64,49.533 29.958,49.533L29.992,49.533C30.31,49.548 30.562,49.803 30.562,50.11L30.562,50.143C30.544,50.446 30.276,50.69 29.963,50.69L29.93,50.69L29.926,50.798Z" style="fill:white;fill-rule:nonzero;"/>
        <path d="M32.897,47.161L32.897,47.258L32.959,47.258C33.601,47.258 34.139,46.772 34.171,46.147L34.175,46.076C34.175,45.458 33.67,44.938 33.028,44.901L32.959,44.901C32.314,44.901 31.778,45.384 31.747,46.02L31.741,46.08C31.741,46.705 32.252,47.225 32.897,47.258L32.897,47.161L32.912,47.06C32.37,47.034 31.952,46.6 31.952,46.08L31.952,46.035C31.98,45.507 32.426,45.103 32.959,45.103L33.011,45.103C33.55,45.129 33.966,45.567 33.966,46.076L33.966,46.132C33.943,46.652 33.492,47.06 32.959,47.06L32.912,47.06L32.897,47.161Z" style="fill:white;fill-rule:nonzero;"/>
        <path d="M56.153,20.743L36.989,33.96L51.431,43.973C51.431,43.973 60.176,39.142 60.353,35.924C60.522,32.687 57.203,21.922 56.153,20.743Z" style="fill:rgb(0,115,163);fill-rule:nonzero;"/>
        <path d="M49.816,31.729C49.521,31.92 48.686,32.317 48.477,31.127C48.028,28.751 46.211,30.049 45.771,30.843C45.33,31.64 44.768,31.523 44.768,31.523C44.768,31.523 45.33,31.64 45.369,32.549C45.401,33.454 46.445,35.393 47.919,33.447C48.654,32.474 49.343,33.742 49.53,34.023L49.601,34.308C49.676,34.637 49.773,36.171 48.542,35.958C46.089,35.542 46.868,37.548 47.349,38.326C47.676,38.846 47.358,39.307 47.358,39.307C47.358,39.307 47.966,38.996 48.857,39.269C49.741,39.546 51.998,39.498 50.617,37.496C49.919,36.485 51.038,36.298 51.379,36.224L51.58,36.231C51.921,36.268 53.36,36.377 52.74,37.425C51.506,39.524 53.756,39.658 54.619,39.318C55.495,38.985 55.831,39.43 55.831,39.43C55.831,39.43 55.495,38.985 56.06,38.263C56.632,37.559 57.113,35.423 54.698,35.991C53.487,36.28 53.669,34.805 53.725,34.472C53.771,34.132 54.385,33.035 55.18,33.948C56.797,35.797 57.714,33.597 57.684,32.691C57.657,31.789 58.2,31.621 58.2,31.621C58.2,31.621 57.657,31.789 57.162,31.026C56.664,30.262 54.748,29.08 54.482,31.479C54.351,32.68 53.139,32.167 52.834,32.01C52.527,31.845 51.392,30.633 52.559,30.203C54.903,29.379 53.261,27.86 52.372,27.579C51.493,27.299 51.519,26.749 51.519,26.749C51.519,26.749 51.493,27.299 50.583,27.486C49.676,27.684 47.882,29.016 50.114,30.087C51.223,30.626 50.166,31.396 49.91,31.617L49.816,31.729Z" style="fill:white;fill-rule:nonzero;"/>
        <path d="M51.65,34.891C52.295,34.929 52.84,34.394 52.877,33.72C52.909,33.035 52.428,32.463 51.786,32.425C51.145,32.388 50.602,32.923 50.578,33.597C50.531,34.274 51.017,34.865 51.65,34.891Z" style="fill:rgb(0,115,163);fill-rule:nonzero;"/>
        <path d="M51.65,34.891L51.64,34.985L51.702,34.985C52.387,34.985 52.943,34.435 52.976,33.724L52.98,33.649C52.98,32.945 52.471,32.362 51.796,32.324L51.724,32.321C51.049,32.324 50.509,32.882 50.464,33.593L50.464,33.671C50.464,34.364 50.976,34.955 51.64,34.985L51.65,34.891L51.661,34.787C51.109,34.764 50.671,34.274 50.671,33.671L50.671,33.612C50.699,32.991 51.184,32.526 51.724,32.53L51.781,32.53C52.338,32.553 52.772,33.039 52.772,33.649L52.772,33.713C52.74,34.323 52.26,34.787 51.702,34.787L51.661,34.787L51.65,34.891Z" style="fill:rgb(0,115,163);fill-rule:nonzero;"/>
        <path d="M51.425,29.537C51.867,29.567 52.226,29.241 52.25,28.826C52.278,28.403 51.945,28.051 51.509,28.029C51.085,28.006 50.714,28.328 50.696,28.743C50.668,29.162 51.004,29.514 51.425,29.537Z" style="fill:rgb(0,115,163);fill-rule:nonzero;"/>
        <path d="M51.425,29.537L51.425,29.641L51.472,29.641C51.945,29.641 52.331,29.286 52.353,28.826L52.353,28.785C52.353,28.336 51.992,27.95 51.519,27.924L51.509,28.029L51.519,27.924L51.47,27.924C51.004,27.924 50.611,28.287 50.587,28.736L50.587,28.785C50.587,29.241 50.958,29.619 51.425,29.641L51.425,29.537L51.438,29.436C51.075,29.421 50.789,29.136 50.789,28.785L50.789,28.747C50.814,28.403 51.111,28.13 51.47,28.13L51.506,28.13C51.876,28.145 52.146,28.448 52.146,28.785L52.146,28.822C52.123,29.166 51.833,29.436 51.472,29.436L51.438,29.436L51.425,29.537Z" style="fill:rgb(0,115,163);fill-rule:nonzero;"/>
        <path d="M46.903,32.964C47.337,32.983 47.709,32.661 47.728,32.249C47.756,31.827 47.423,31.475 46.993,31.452C46.567,31.434 46.194,31.744 46.174,32.171C46.151,32.583 46.473,32.938 46.903,32.964Z" style="fill:rgb(0,115,163);fill-rule:nonzero;"/>
        <path d="M46.903,32.964L46.894,33.062L46.946,33.069C47.421,33.069 47.803,32.702 47.835,32.253L47.835,32.208C47.835,31.756 47.472,31.378 46.993,31.351L46.956,31.344C46.488,31.344 46.089,31.696 46.071,32.16L46.071,32.208C46.071,32.661 46.432,33.035 46.894,33.062L46.903,32.964L46.914,32.863C46.557,32.848 46.273,32.545 46.273,32.208L46.278,32.175C46.291,31.812 46.596,31.55 46.956,31.55L46.987,31.55L46.993,31.452L46.987,31.55C47.345,31.569 47.631,31.86 47.631,32.208L47.631,32.234C47.605,32.59 47.313,32.863 46.946,32.863L46.914,32.863L46.903,32.964Z" style="fill:rgb(0,115,163);fill-rule:nonzero;"/>
        <path d="M56.224,33.196C56.658,33.219 57.025,32.901 57.048,32.474C57.07,32.062 56.733,31.711 56.308,31.688C55.873,31.658 55.508,31.98 55.495,32.399C55.472,32.822 55.8,33.174 56.224,33.196Z" style="fill:rgb(0,115,163);fill-rule:nonzero;"/>
        <path d="M56.224,33.196L56.224,33.297L56.269,33.297C56.733,33.297 57.126,32.938 57.152,32.478L57.156,32.437C57.152,31.991 56.785,31.606 56.312,31.583L56.264,31.583C55.8,31.583 55.41,31.943 55.39,32.399L55.39,32.437C55.39,32.889 55.751,33.275 56.224,33.297L56.224,33.196L56.234,33.091C55.871,33.076 55.592,32.788 55.592,32.437L55.592,32.414C55.601,32.051 55.91,31.786 56.264,31.786L56.299,31.786C56.67,31.804 56.945,32.1 56.945,32.437L56.945,32.463C56.926,32.83 56.626,33.091 56.269,33.091L56.234,33.091L56.224,33.196Z" style="fill:rgb(0,115,163);fill-rule:nonzero;"/>
        <path d="M54.376,38.659C54.806,38.674 55.171,38.36 55.195,37.941C55.218,37.518 54.894,37.174 54.46,37.151C54.028,37.125 53.665,37.439 53.639,37.859C53.612,38.278 53.943,38.633 54.376,38.659Z" style="fill:rgb(0,115,163);fill-rule:nonzero;"/>
        <path d="M54.376,38.659L54.372,38.757L54.417,38.764C54.885,38.757 55.274,38.401 55.302,37.949L55.302,37.904C55.302,37.451 54.943,37.077 54.464,37.043L54.421,37.043C53.949,37.043 53.564,37.402 53.532,37.851L53.532,37.904C53.532,38.36 53.899,38.731 54.372,38.757L54.365,38.757L54.372,38.757L54.376,38.659L54.38,38.555C54.028,38.536 53.743,38.244 53.743,37.904L53.747,37.866C53.762,37.511 54.062,37.249 54.421,37.249L54.456,37.249C54.815,37.264 55.096,37.563 55.096,37.904L55.092,37.93C55.076,38.285 54.774,38.555 54.417,38.555L54.38,38.555L54.376,38.659L54.38,38.555L54.376,38.659Z" style="fill:rgb(0,115,163);fill-rule:nonzero;"/>
        <path d="M48.701,38.371C49.137,38.394 49.496,38.064 49.526,37.653C49.549,37.23 49.212,36.878 48.785,36.86C48.355,36.837 47.99,37.155 47.962,37.574C47.943,37.993 48.271,38.349 48.701,38.371Z" style="fill:rgb(0,115,163);fill-rule:nonzero;"/>
        <path d="M48.701,38.371L48.692,38.469L48.748,38.469C49.217,38.469 49.605,38.109 49.633,37.66L49.633,37.619C49.633,37.163 49.262,36.785 48.795,36.755L48.742,36.755C48.276,36.755 47.887,37.114 47.861,37.57L47.861,37.608C47.861,38.064 48.224,38.442 48.692,38.469L48.701,38.371L48.705,38.263C48.351,38.244 48.065,37.96 48.065,37.608L48.065,37.578C48.082,37.226 48.387,36.964 48.742,36.964L48.782,36.964C49.141,36.972 49.427,37.271 49.427,37.619L49.422,37.649L49.526,37.653L49.422,37.642C49.403,37.993 49.103,38.263 48.748,38.263L48.705,38.263L48.701,38.371Z" style="fill:rgb(0,115,163);fill-rule:nonzero;"/>
        <path d="M51.472,29.166C51.861,29.192 52.192,28.901 52.213,28.53C52.226,28.152 51.93,27.83 51.538,27.808C51.154,27.789 50.827,28.077 50.804,28.459C50.785,28.826 51.083,29.151 51.472,29.166Z" style="fill:white;fill-rule:nonzero;"/>
        <path d="M51.472,29.166L51.463,29.271L51.506,29.271C51.93,29.271 52.297,28.953 52.316,28.53L52.316,28.5C52.316,28.085 51.979,27.729 51.543,27.707L51.538,27.808L51.543,27.707L51.502,27.707C51.074,27.707 50.724,28.036 50.705,28.451L50.701,28.5C50.701,28.912 51.038,29.248 51.463,29.271L51.472,29.166L51.481,29.065C51.15,29.047 50.914,28.8 50.914,28.5L50.914,28.463C50.929,28.152 51.188,27.909 51.502,27.909L51.534,27.913L51.538,27.913C51.865,27.92 52.108,28.186 52.108,28.5L52.108,28.519L52.213,28.53L52.108,28.519C52.095,28.826 51.824,29.065 51.506,29.065L51.481,29.065L51.472,29.166Z" style="fill:white;fill-rule:nonzero;"/>
        <path d="M46.909,32.466C47.298,32.493 47.635,32.197 47.648,31.827C47.678,31.445 47.377,31.127 46.989,31.108C46.6,31.09 46.273,31.381 46.254,31.752C46.23,32.126 46.529,32.444 46.909,32.466Z" style="fill:white;fill-rule:nonzero;"/>
        <path d="M46.909,32.466L46.909,32.571L46.948,32.571C47.373,32.571 47.732,32.253 47.756,31.83L47.648,31.827L47.756,31.83L47.756,31.786C47.756,31.374 47.425,31.03 46.993,31.015L46.952,31.015C46.52,31.015 46.174,31.333 46.149,31.748L46.147,31.789C46.149,32.197 46.477,32.549 46.905,32.571L46.909,32.466L46.918,32.369C46.6,32.351 46.351,32.096 46.351,31.789L46.351,31.759C46.366,31.445 46.632,31.209 46.952,31.209L46.984,31.209C47.298,31.224 47.55,31.475 47.55,31.786L47.55,31.827C47.535,32.126 47.266,32.369 46.948,32.369L46.918,32.369L46.909,32.466Z" style="fill:white;fill-rule:nonzero;"/>
        <path d="M56.228,32.702C56.621,32.725 56.954,32.437 56.98,32.055C56.991,31.692 56.696,31.37 56.303,31.344C55.919,31.322 55.592,31.613 55.568,31.995C55.543,32.362 55.846,32.68 56.228,32.702Z" style="fill:white;fill-rule:nonzero;"/>
        <path d="M56.228,32.702L56.224,32.807L56.271,32.807C56.696,32.807 57.053,32.481 57.075,32.066L57.075,32.029C57.075,31.613 56.735,31.269 56.312,31.243L56.271,31.243C55.457,31.243 55.452,32.246 55.465,31.984L55.457,32.029C55.465,32.437 55.803,32.781 56.224,32.807L56.228,32.702L56.237,32.605C55.919,32.586 55.67,32.332 55.67,32.029L55.67,31.999C55.691,31.688 55.953,31.445 56.271,31.445L56.299,31.445C56.621,31.46 56.87,31.714 56.87,32.029L56.864,32.051C56.851,32.362 56.589,32.605 56.271,32.605L56.237,32.605L56.228,32.702Z" style="fill:white;fill-rule:nonzero;"/>
        <path d="M54.357,38.248C54.746,38.263 55.077,37.975 55.096,37.6C55.12,37.222 54.813,36.904 54.432,36.882C54.048,36.863 53.712,37.159 53.687,37.533C53.672,37.907 53.968,38.222 54.357,38.248Z" style="fill:white;fill-rule:nonzero;"/>
        <path d="M54.357,38.248L54.357,38.353L54.389,38.353C54.813,38.353 55.171,38.027 55.201,37.604L55.201,37.567C55.201,37.151 54.866,36.803 54.438,36.781L54.432,36.882L54.438,36.781L54.389,36.781C53.968,36.781 53.607,37.107 53.588,37.529L53.588,37.567C53.588,37.978 53.925,38.33 54.348,38.353L54.357,38.353L54.357,38.248L54.366,38.143C54.048,38.132 53.79,37.874 53.79,37.567L53.79,37.541C53.809,37.222 54.073,36.983 54.389,36.983L54.432,36.983C54.746,37.006 54.993,37.252 54.993,37.567L54.989,37.593C54.978,37.904 54.707,38.143 54.389,38.143L54.366,38.143L54.357,38.248L54.366,38.143L54.357,38.248Z" style="fill:white;fill-rule:nonzero;"/>
        <path d="M48.711,37.997C49.094,38.016 49.422,37.724 49.44,37.346C49.465,36.975 49.169,36.654 48.782,36.635C48.396,36.616 48.065,36.904 48.046,37.279C48.024,37.653 48.327,37.967 48.711,37.997Z" style="fill:white;fill-rule:nonzero;"/>
        <path d="M48.711,37.997L48.711,38.094L48.757,38.094C49.175,38.094 49.524,37.773 49.549,37.353L49.549,37.312C49.549,36.901 49.217,36.556 48.785,36.534L48.752,36.534C48.321,36.534 47.962,36.856 47.949,37.275L47.949,37.312C47.949,37.724 48.276,38.064 48.711,38.094L48.711,37.997L48.72,37.896C48.396,37.874 48.149,37.615 48.149,37.312L48.149,37.286C48.162,36.975 48.437,36.732 48.752,36.732L48.782,36.732C49.094,36.751 49.343,37.006 49.343,37.312L49.337,37.346C49.324,37.653 49.062,37.9 48.757,37.896L48.72,37.896L48.711,37.997Z" style="fill:white;fill-rule:nonzero;"/>
        <path d="M51.684,34.356C52.297,34.39 52.83,33.93 52.858,33.338C52.89,32.74 52.41,32.234 51.807,32.201C51.188,32.171 50.662,32.631 50.636,33.223C50.604,33.821 51.074,34.323 51.684,34.356Z" style="fill:white;fill-rule:nonzero;"/>
        <path d="M51.684,34.356L51.68,34.461L51.74,34.468C52.387,34.468 52.926,33.971 52.958,33.338L52.961,33.279C52.961,32.657 52.452,32.134 51.809,32.107L51.74,32.1C51.1,32.1 50.57,32.59 50.537,33.219L50.537,33.279C50.537,33.903 51.029,34.42 51.68,34.461L51.684,34.356L51.689,34.259C51.15,34.233 50.733,33.795 50.733,33.279L50.733,33.234C50.763,32.714 51.201,32.302 51.74,32.302L51.801,32.302C52.335,32.328 52.755,32.766 52.755,33.279L52.75,33.327C52.731,33.851 52.277,34.263 51.74,34.263L51.689,34.259L51.684,34.356Z" style="fill:white;fill-rule:nonzero;"/>
        <g>
            <clipPath id="_clip1">
                <rect x="23.905" y="14.891" width="8.9" height="16.614"/>
            </clipPath>
            <g clip-path="url(#_clip1)">
                <path d="M32.807,26.648L32.807,27.632C34.033,27.632 35.133,27.497 35.971,27.261C36.394,27.146 36.744,27.007 37.034,26.824C37.176,26.726 37.305,26.622 37.408,26.468C37.517,26.334 37.591,26.146 37.591,25.952C37.591,25.75 37.517,25.567 37.408,25.432C37.227,25.181 36.978,25.031 36.682,24.885C35.806,24.493 34.413,24.275 32.807,24.272C31.58,24.275 30.482,24.403 29.632,24.639C29.213,24.758 28.86,24.893 28.581,25.08C28.435,25.181 28.304,25.278 28.201,25.432C28.098,25.567 28.02,25.75 28.02,25.952C28.02,26.146 28.098,26.334 28.201,26.468C28.382,26.723 28.637,26.869 28.927,27.011C29.806,27.404 31.198,27.628 32.807,27.632L32.807,26.648C31.666,26.648 30.632,26.513 29.919,26.318C29.563,26.221 29.292,26.102 29.146,26L29.019,25.903L28.921,25.952L29.028,25.952L29.019,25.903L28.921,25.952L29.028,25.952L28.899,25.952L29.024,25.993L29.028,25.952L28.899,25.952L29.024,25.993L28.965,25.978L29.019,26L29.024,25.993L28.965,25.978L29.019,26L29.08,25.948C29.236,25.806 29.733,25.593 30.398,25.469C31.056,25.342 31.898,25.26 32.807,25.26C33.945,25.26 34.98,25.391 35.691,25.585C36.046,25.679 36.323,25.802 36.463,25.903L36.589,25.993L36.589,26L36.688,25.952L36.585,25.952L36.589,26L36.688,25.952L36.585,25.952L36.712,25.952L36.589,25.907L36.585,25.952L36.712,25.952L36.589,25.907L36.641,25.926L36.589,25.903L36.589,25.907L36.641,25.926L36.589,25.903L36.529,25.963C36.368,26.094 35.874,26.304 35.217,26.431C34.553,26.562 33.711,26.648 32.807,26.648Z" style="fill:rgb(233,50,42);fill-rule:nonzero;"/>
                <path d="M32.807,26.943L32.807,27.336C34.007,27.336 35.086,27.198 35.887,26.973C36.284,26.861 36.622,26.734 36.862,26.573C37.105,26.412 37.286,26.218 37.286,25.952C37.286,25.682 37.105,25.488 36.862,25.331C36.134,24.863 34.607,24.571 32.807,24.564C31.604,24.564 30.517,24.702 29.722,24.927C29.32,25.035 28.992,25.166 28.749,25.331C28.51,25.488 28.323,25.682 28.323,25.952C28.323,26.218 28.51,26.412 28.749,26.573C29.479,27.044 31.008,27.329 32.807,27.336L32.807,26.943C31.636,26.943 30.579,26.801 29.836,26.599C29.46,26.487 29.165,26.375 28.97,26.247C28.781,26.12 28.725,26.012 28.731,25.952C28.725,25.892 28.781,25.783 28.97,25.653C29.544,25.267 31.056,24.957 32.807,24.96C33.967,24.96 35.032,25.099 35.78,25.297C36.151,25.406 36.443,25.529 36.632,25.653C36.822,25.783 36.89,25.892 36.89,25.952C36.89,26.012 36.822,26.124 36.632,26.247C36.067,26.633 34.553,26.943 32.807,26.943Z" style="fill:rgb(233,50,42);fill-rule:nonzero;"/>
            </g>
        </g>
        <clipPath id="_clip2">
            <rect x="32.805" y="15.179" width="9.301" height="14.687"/>
        </clipPath>
        <g clip-path="url(#_clip2)">
            <path d="M32.807,26.914L32.807,27.303C34.007,27.303 35.086,27.168 35.887,26.943C36.284,26.831 36.622,26.704 36.862,26.543C37.105,26.382 37.286,26.188 37.286,25.918C37.286,25.653 37.105,25.454 36.862,25.297C36.134,24.829 34.607,24.541 32.807,24.534C31.604,24.534 30.517,24.668 29.722,24.893C29.32,25.005 28.992,25.132 28.749,25.297C28.51,25.454 28.323,25.653 28.323,25.918C28.323,26.188 28.51,26.382 28.749,26.543C29.479,27.014 31.008,27.295 32.807,27.303L32.807,26.914C31.636,26.914 30.579,26.771 29.836,26.565C29.46,26.457 29.165,26.341 28.97,26.218C28.781,26.087 28.725,25.982 28.731,25.918C28.725,25.858 28.781,25.75 28.97,25.619C29.544,25.237 31.056,24.927 32.807,24.93C33.967,24.93 35.032,25.069 35.78,25.267C36.151,25.372 36.443,25.499 36.632,25.619C36.822,25.75 36.89,25.858 36.89,25.918C36.89,25.982 36.822,26.09 36.632,26.218C36.067,26.603 34.553,26.914 32.807,26.914Z" style="fill:rgb(0,115,163);fill-rule:nonzero;"/>
        </g>
        <path d="M36.783,26.734C36.783,27.284 34.976,27.725 32.746,27.725C30.515,27.725 28.708,27.284 28.708,26.734C28.708,26.184 30.515,25.742 32.746,25.742C34.976,25.742 36.783,26.184 36.783,26.734Z" style="fill:rgb(195,158,5);fill-rule:nonzero;"/>
        <path d="M36.508,25.63C36.508,25.63 32.987,24.332 28.976,25.615C28.976,25.615 28.706,25.218 29.513,25.028C29.513,25.028 30.908,24.698 32.995,24.62C32.995,24.62 34.633,24.62 36.239,25.181L36.489,25.372L36.508,25.63Z" style="fill:rgb(195,158,5);fill-rule:nonzero;"/>
        <path d="M32.673,18.67C31.492,19.703 31.384,22.827 31.384,22.827C30.897,18.936 28.671,18.921 28.671,18.921C29.442,20.818 29.565,23.336 29.565,23.336C28.865,20.492 25.722,20.339 25.722,20.339C28.298,22.663 28.313,24.758 28.313,24.758C30.119,23.815 32.624,23.931 32.624,23.931L32.721,23.931C32.721,23.931 35.227,23.815 37.032,24.758C37.032,24.758 37.047,22.663 39.623,20.339C39.623,20.339 36.48,20.492 35.78,23.336C35.78,23.336 35.904,20.818 36.675,18.921C36.675,18.921 34.448,18.936 33.962,22.827C33.962,22.827 33.853,19.703 32.673,18.67Z" style="fill:rgb(195,158,5);fill-rule:nonzero;"/>
        <clipPath id="_clip3">
            <rect x="30.442" y="43.647" width="2.53" height="6.017"/>
        </clipPath>
        <g clip-path="url(#_clip3)">
            <path d="M32.893,47.685C33.616,47.715 34.241,47.146 34.28,46.416C34.317,45.676 33.769,45.054 33.041,45.021C32.321,44.98 31.707,45.556 31.664,46.282C31.616,47.023 32.173,47.64 32.893,47.685Z" style="fill:rgb(233,50,42);fill-rule:nonzero;"/>
        </g>
        <clipPath id="_clip4">
            <rect x="32.972" y="43.647" width="2.528" height="6.017"/>
        </clipPath>
        <g clip-path="url(#_clip4)">
            <path d="M32.849,47.685C33.571,47.715 34.196,47.146 34.235,46.416C34.272,45.676 33.722,45.054 32.996,45.021C32.276,44.98 31.662,45.556 31.619,46.282C31.571,47.023 32.128,47.64 32.849,47.685Z" style="fill:rgb(0,115,163);fill-rule:nonzero;"/>
        </g>
        <path d="M32.843,47.041C33.457,47.075 33.982,46.611 34.014,46.016C34.048,45.421 33.571,44.92 32.966,44.886C32.353,44.852 31.823,45.309 31.795,45.908C31.758,46.495 32.235,47.008 32.843,47.041Z" style="fill:white;fill-rule:nonzero;"/>
        <clipPath id="_clip5">
            <rect x="30.974" y="39.846" width="1.781" height="4.235"/>
        </clipPath>
        <g clip-path="url(#_clip5)">
            <path d="M32.701,42.69C33.21,42.712 33.649,42.312 33.677,41.795C33.704,41.275 33.316,40.837 32.804,40.811C32.297,40.785 31.864,41.189 31.834,41.701C31.801,42.222 32.194,42.656 32.701,42.69Z" style="fill:rgb(233,50,42);fill-rule:nonzero;"/>
        </g>
        <clipPath id="_clip6">
            <rect x="32.755" y="39.846" width="1.781" height="4.235"/>
        </clipPath>
        <g clip-path="url(#_clip6)">
            <path d="M32.669,42.69C33.178,42.712 33.618,42.312 33.646,41.795C33.672,41.275 33.284,40.837 32.774,40.811C32.265,40.785 31.833,41.189 31.803,41.701C31.769,42.222 32.162,42.656 32.669,42.69Z" style="fill:rgb(0,115,163);fill-rule:nonzero;"/>
        </g>
        <path d="M32.71,42.211C33.163,42.24 33.561,41.896 33.584,41.447C33.608,41.006 33.253,40.628 32.787,40.601C32.338,40.579 31.956,40.927 31.924,41.357C31.9,41.814 32.25,42.188 32.71,42.211Z" style="fill:white;fill-rule:nonzero;"/>
        <path d="M32.555,37.997L46.579,47.337L51.936,43.647L37.865,34.427L56.4,21.589L55.225,18.214L50.761,18.163L32.62,30.525L14.455,18.234L10.193,18.214L9.04,21.499L26.916,34.225L13.319,43.58L18.618,47.329L32.555,37.997Z" style="fill:white;fill-rule:nonzero;"/>
        <path d="M32.555,37.997L46.579,47.337L51.936,43.647L37.865,34.427L56.4,21.589L55.225,18.214L50.761,18.163L32.62,30.525L14.455,18.234L10.193,18.214L9.04,21.499L26.916,34.225L13.319,43.58L18.618,47.329L32.555,37.997Z" style="fill:none;stroke:rgb(35,31,32);stroke-width:0.48px;stroke-linecap:butt;stroke-linejoin:miter;"/>
        <path d="M10.07,18.326L13.217,8.541C13.217,8.541 14.055,3.714 20.218,3.714L20.622,3.718L46.153,3.766C46.153,3.766 50.684,3.212 52.495,8.889L52.555,9.139L55.504,18.322L10.07,18.326Z" style="fill:rgb(195,158,5);fill-rule:nonzero;"/>
        <path d="M12.21,12.038L26.272,12.008C26.272,12.008 26.867,11.951 26.953,11.785C27.036,11.613 27.35,11.134 27.35,11.134C27.35,11.134 27.533,10.604 27.776,11.497L27.941,12.232C27.941,12.232 28.083,12.973 28.281,11.729C28.476,10.481 28.588,9.972 28.588,9.972C28.588,9.972 29.015,9.124 29.045,10.06L29.045,14.097C29.045,14.097 29.071,15.145 29.262,15.145C29.471,15.145 29.748,15.344 29.748,14.524L29.748,7.912C29.748,7.912 29.64,7.175 30.179,7.121C30.179,7.121 30.512,7.121 30.512,7.766L30.512,15.658C30.512,15.658 30.452,16.073 31.024,16.073C31.024,16.073 31.219,16.133 31.283,15.542L31.245,6.834C31.245,6.834 31.477,5.764 32.102,6.696L32.102,16.193C32.102,16.193 32.042,16.96 32.551,16.96" style="fill:none;stroke:rgb(35,31,32);stroke-width:0.29px;stroke-linecap:butt;stroke-linejoin:miter;"/>
        <path d="M53.206,12.038L38.823,12.008C38.823,12.008 38.228,11.951 38.145,11.785C38.059,11.613 37.749,11.134 37.749,11.134C37.749,11.134 37.569,10.604 37.326,11.497L37.161,12.232C37.161,12.232 37.015,12.973 36.813,11.729C36.622,10.481 36.503,9.972 36.503,9.972C36.503,9.972 36.084,9.124 36.054,10.06L36.054,14.097C36.054,14.097 36.023,15.145 35.829,15.145C35.627,15.145 35.354,15.344 35.354,14.524L35.354,7.912C35.354,7.912 35.459,7.175 34.927,7.121C34.927,7.121 34.579,7.121 34.579,7.766L34.579,15.658C34.579,15.658 34.643,16.073 34.074,16.073C34.074,16.073 33.872,16.133 33.816,15.542L33.85,6.834C33.85,6.834 33.625,5.764 33.008,6.696L33.008,16.193C33.008,16.193 33.06,16.96 32.551,16.96" style="fill:none;stroke:rgb(35,31,32);stroke-width:0.29px;stroke-linecap:butt;stroke-linejoin:miter;"/>
        <path d="M9.935,18.307L55.422,18.307" style="fill:none;stroke:rgb(35,31,32);stroke-width:0.69px;stroke-linecap:butt;stroke-linejoin:miter;"/>
        <path d="M14.631,17.357L15.507,16.556" style="fill:none;stroke:rgb(35,31,32);stroke-width:0.17px;stroke-linecap:butt;stroke-linejoin:miter;"/>
        <path d="M23.338,16.556L24.218,17.357" style="fill:none;stroke:rgb(35,31,32);stroke-width:0.17px;stroke-linecap:butt;stroke-linejoin:miter;"/>
        <path d="M15.496,8.292C15.496,8.292 15.181,8.679 14.818,8.801L14.631,8.836L14.631,17.357L19.035,15.916C19.035,15.916 19.312,16.418 19.9,15.961L19.956,15.961L24.218,17.357L24.218,8.836L24.143,8.821C23.709,8.681 23.338,8.202 23.338,8.202" style="fill:white;fill-rule:nonzero;"/>
        <path d="M15.496,8.292C15.496,8.292 15.181,8.679 14.818,8.801L14.631,8.836L14.631,17.357L19.035,15.916C19.035,15.916 19.312,16.418 19.9,15.961L19.956,15.961L24.218,17.357L24.218,8.836L24.143,8.821C23.709,8.681 23.338,8.202 23.338,8.202" style="fill:none;stroke:rgb(35,31,32);stroke-width:0.29px;stroke-linecap:butt;stroke-linejoin:miter;"/>
        <path d="M15.847,8.197C15.847,8.197 16.423,8.444 17.273,7.77C18.126,7.104 19.398,7.708 19.413,8.245L19.413,15.37C19.413,15.37 18.395,14.301 16.88,15.751C16.88,15.751 16.244,16.496 15.507,16.579L15.507,8.155L15.847,8.197Z" style="fill:white;fill-rule:nonzero;"/>
        <path d="M15.847,8.197C15.847,8.197 16.423,8.444 17.273,7.77C18.126,7.104 19.398,7.708 19.413,8.245L19.413,15.37C19.413,15.37 18.395,14.301 16.88,15.751C16.88,15.751 16.244,16.496 15.507,16.579L15.507,8.155L15.847,8.197Z" style="fill:none;stroke:rgb(35,31,32);stroke-width:0.29px;stroke-linecap:butt;stroke-linejoin:miter;"/>
        <path d="M23.002,8.197C23.002,8.197 22.422,8.444 21.572,7.77C20.715,7.104 19.439,7.708 19.428,8.245L19.428,15.37C19.428,15.37 20.45,14.301 21.965,15.751C21.965,15.751 22.609,16.496 23.338,16.556L23.338,8.137L23.002,8.197Z" style="fill:white;fill-rule:nonzero;"/>
        <path d="M23.002,8.197C23.002,8.197 22.422,8.444 21.572,7.77C20.715,7.104 19.439,7.708 19.428,8.245L19.428,15.37C19.428,15.37 20.45,14.301 21.965,15.751C21.965,15.751 22.609,16.496 23.338,16.556L23.338,8.137L23.002,8.197Z" style="fill:none;stroke:rgb(35,31,32);stroke-width:0.29px;stroke-linecap:butt;stroke-linejoin:miter;"/>
        <path d="M14.631,8.836C14.631,8.836 15.293,8.84 15.507,8.155L15.507,16.556L14.631,17.357L14.631,8.836Z" style="fill:rgb(233,50,42);fill-rule:nonzero;"/>
        <path d="M14.631,8.836C14.631,8.836 15.293,8.84 15.507,8.155L15.507,16.556L14.631,17.357L14.631,8.836Z" style="fill:none;stroke:rgb(35,31,32);stroke-width:0.23px;stroke-linecap:butt;stroke-linejoin:miter;"/>
        <path d="M24.218,8.816C24.218,8.816 23.548,8.821 23.338,8.137L23.338,16.537L24.218,17.338L24.218,8.816Z" style="fill:rgb(233,50,42);fill-rule:nonzero;"/>
        <path d="M24.218,8.816C24.218,8.816 23.548,8.821 23.338,8.137L23.338,16.537L24.218,17.338L24.218,8.816Z" style="fill:none;stroke:rgb(35,31,32);stroke-width:0.29px;stroke-linecap:butt;stroke-linejoin:miter;"/>
        <path d="M18.983,15.819C18.983,15.819 19.106,15.516 19.346,15.415" style="fill:white;fill-rule:nonzero;"/>
        <path d="M18.983,15.819C18.983,15.819 19.106,15.516 19.346,15.415" style="fill:none;stroke:rgb(35,31,32);stroke-width:0.17px;stroke-linecap:butt;stroke-linejoin:miter;"/>
        <path d="M19.922,15.882C19.922,15.882 19.776,15.527 19.511,15.418" style="fill:white;fill-rule:nonzero;"/>
        <path d="M19.922,15.882C19.922,15.882 19.776,15.527 19.511,15.418" style="fill:none;stroke:rgb(35,31,32);stroke-width:0.17px;stroke-linecap:butt;stroke-linejoin:miter;"/>
        <path d="M40.854,17.181L41.726,16.384" style="fill:none;stroke:rgb(35,31,32);stroke-width:0.17px;stroke-linecap:butt;stroke-linejoin:miter;"/>
        <path d="M49.554,16.384L50.438,17.181" style="fill:none;stroke:rgb(35,31,32);stroke-width:0.17px;stroke-linecap:butt;stroke-linejoin:miter;"/>
        <path d="M41.711,8.122C41.711,8.122 41.397,8.507 41.034,8.627L40.854,8.662L40.854,17.181L45.251,15.744C45.251,15.744 45.528,16.249 46.123,15.793L46.175,15.789L50.438,17.181L50.438,8.662L50.366,8.647C49.925,8.511 49.554,8.024 49.554,8.024" style="fill:white;fill-rule:nonzero;"/>
        <path d="M41.711,8.122C41.711,8.122 41.397,8.507 41.034,8.627L40.854,8.662L40.854,17.181L45.251,15.744C45.251,15.744 45.528,16.249 46.123,15.793L46.175,15.789L50.438,17.181L50.438,8.662L50.366,8.647C49.925,8.511 49.554,8.024 49.554,8.024" style="fill:none;stroke:rgb(35,31,32);stroke-width:0.29px;stroke-linecap:butt;stroke-linejoin:miter;"/>
        <path d="M42.059,8.021C42.059,8.021 42.65,8.268 43.489,7.598C44.349,6.928 45.625,7.536 45.629,8.073L45.633,15.201C45.633,15.201 44.619,14.129 43.099,15.579C43.099,15.579 42.456,16.32 41.726,16.406L41.726,7.983L42.059,8.021Z" style="fill:white;fill-rule:nonzero;"/>
        <path d="M42.059,8.021C42.059,8.021 42.65,8.268 43.489,7.598C44.349,6.928 45.625,7.536 45.629,8.073L45.633,15.201C45.633,15.201 44.619,14.129 43.099,15.579C43.099,15.579 42.456,16.32 41.726,16.406L41.726,7.983L42.059,8.021Z" style="fill:none;stroke:rgb(35,31,32);stroke-width:0.29px;stroke-linecap:butt;stroke-linejoin:miter;"/>
        <path d="M49.221,8.021C49.221,8.021 48.649,8.268 47.792,7.598C46.942,6.928 45.663,7.536 45.655,8.073L45.655,15.201C45.655,15.201 46.673,14.129 48.181,15.579C48.181,15.579 48.832,16.32 49.554,16.384L49.554,7.965L49.221,8.021Z" style="fill:white;fill-rule:nonzero;"/>
        <path d="M49.221,8.021C49.221,8.021 48.649,8.268 47.792,7.598C46.942,6.928 45.663,7.536 45.655,8.073L45.655,15.201C45.655,15.201 46.673,14.129 48.181,15.579C48.181,15.579 48.832,16.32 49.554,16.384L49.554,7.965L49.221,8.021Z" style="fill:none;stroke:rgb(35,31,32);stroke-width:0.29px;stroke-linecap:butt;stroke-linejoin:miter;"/>
        <path d="M40.854,8.662C40.854,8.662 41.513,8.668 41.726,7.983L41.726,16.384L40.854,17.181L40.854,8.662Z" style="fill:rgb(233,50,42);fill-rule:nonzero;"/>
        <path d="M40.854,8.662C40.854,8.662 41.513,8.668 41.726,7.983L41.726,16.384L40.854,17.181L40.854,8.662Z" style="fill:none;stroke:rgb(35,31,32);stroke-width:0.23px;stroke-linecap:butt;stroke-linejoin:miter;"/>
        <path d="M50.438,8.638C50.438,8.638 49.768,8.647 49.554,7.963L49.554,16.365L50.438,17.162L50.438,8.638Z" style="fill:rgb(233,50,42);fill-rule:nonzero;"/>
        <path d="M50.438,8.638C50.438,8.638 49.768,8.647 49.554,7.963L49.554,16.365L50.438,17.162L50.438,8.638Z" style="fill:none;stroke:rgb(35,31,32);stroke-width:0.29px;stroke-linecap:butt;stroke-linejoin:miter;"/>
        <path d="M45.199,15.647C45.199,15.647 45.322,15.344 45.569,15.239" style="fill:white;fill-rule:nonzero;"/>
        <path d="M45.199,15.647C45.199,15.647 45.322,15.344 45.569,15.239" style="fill:none;stroke:rgb(35,31,32);stroke-width:0.17px;stroke-linecap:butt;stroke-linejoin:miter;"/>
        <path d="M46.145,15.71C46.145,15.71 45.996,15.351 45.734,15.239" style="fill:white;fill-rule:nonzero;"/>
        <path d="M46.145,15.71C46.145,15.71 45.996,15.351 45.734,15.239" style="fill:none;stroke:rgb(35,31,32);stroke-width:0.17px;stroke-linecap:butt;stroke-linejoin:miter;"/>
        <path d="M52.89,8.846L52.832,8.623L52.827,8.606L52.821,8.591C52.02,6.157 50.669,4.782 49.367,4.06C48.071,3.33 46.849,3.233 46.301,3.233C46.108,3.233 45.998,3.248 45.983,3.248L46.033,3.74L46.033,3.248L20.682,3.265L20.682,3.757L20.686,3.265L20.682,3.757L20.682,4.249L46.063,4.234L46.095,4.228L46.132,4.228L46.301,4.221C46.737,4.221 47.775,4.296 48.857,4.909C49.947,5.523 51.113,6.653 51.861,8.891L52.346,8.737L51.848,8.865L51.914,9.108L51.917,9.117L59.381,31.658L59.384,31.662L59.399,31.714C59.474,31.969 59.802,33.125 59.802,34.51C59.802,35.307 59.695,36.167 59.381,36.964C59.057,37.761 58.552,38.491 57.71,39.067L57.68,39.082L57.517,39.239L36.33,53.777L36.312,53.795L36.302,53.799C36.158,53.923 34.66,55.071 32.51,55.068C31.299,55.068 29.853,54.72 28.252,53.578L28.237,53.56L27.975,53.41L8.876,39.849L8.876,39.846L8.835,39.823C8.674,39.703 7.832,39.075 7.046,38.083C6.255,37.084 5.538,35.744 5.538,34.192C5.538,33.634 5.626,33.054 5.838,32.437L13.81,8.524L13.815,8.49L13.825,8.457C13.871,8.247 14.147,7.181 15.063,6.189C15.986,5.201 17.522,4.249 20.27,4.241L20.27,3.749L20.261,4.241L20.672,4.249L20.682,4.249L20.682,3.757L20.686,3.265L20.274,3.259L20.27,3.259C17.073,3.252 15.149,4.501 14.098,5.766C13.041,7.029 12.827,8.273 12.816,8.322L13.319,8.404L12.84,8.258L4.874,32.126L4.874,32.13C4.631,32.848 4.524,33.533 4.526,34.192C4.526,36.175 5.482,37.791 6.418,38.899C7.346,40.007 8.266,40.628 8.292,40.65L8.58,40.246L8.283,40.646L27.408,54.229L27.681,54.398L27.952,53.975L27.651,54.379C29.402,55.622 31.088,56.055 32.51,56.055C35.212,56.044 36.925,54.574 36.981,54.533L36.645,54.17L36.933,54.57L58.153,39.999L58.352,39.827L58.004,39.471L58.299,39.868C59.309,39.168 59.951,38.259 60.318,37.312C60.7,36.362 60.817,35.389 60.817,34.51C60.817,32.766 60.353,31.396 60.35,31.359" style="fill:rgb(35,31,32);fill-rule:nonzero;"/>
        <path d="M78.557,51.164L78.119,49.237C78.056,49.487 77.79,50.616 77.602,51.337C77.397,52.12 77.257,52.637 77.022,53.358L79.153,53.358C79.074,53.123 78.73,51.917 78.557,51.164ZM80.454,57.761L79.686,55.175L76.489,55.175L75.721,57.761L73.433,57.761L77.006,46.838L79.372,46.838L82.804,57.761L80.454,57.761Z" style="fill:white;fill-rule:nonzero;"/>
        <path d="M85.659,57.95C84.766,57.95 84.045,57.526 83.794,56.852C83.638,56.445 83.606,56.194 83.606,55.05L83.606,49.064C83.606,48.014 83.575,47.372 83.497,46.651L85.644,46.165C85.722,46.604 85.753,47.121 85.753,48.25L85.753,54.502C85.753,55.88 85.769,56.069 85.895,56.289C85.973,56.429 86.145,56.507 86.317,56.507C86.396,56.507 86.443,56.507 86.553,56.476L86.913,57.73C86.553,57.871 86.114,57.95 85.659,57.95Z" style="fill:white;fill-rule:nonzero;"/>
        <path d="M93.12,57.981C92.854,57.793 92.634,57.526 92.493,57.197C91.976,57.699 91.224,57.965 90.378,57.965C89.25,57.965 88.278,57.432 88.012,56.665C87.886,56.304 87.839,55.88 87.839,55.066L87.839,49.926L89.908,49.534L89.908,54.69C89.908,55.411 89.97,55.787 90.08,56.006C90.19,56.225 90.503,56.382 90.816,56.382C91.334,56.382 91.96,56.006 92.117,55.615L92.117,49.973L94.123,49.549L94.123,55.677C94.123,56.21 94.295,56.758 94.609,57.134L93.12,57.981Z" style="fill:white;fill-rule:nonzero;"/>
        <path d="M104.266,57.761L104.266,52.464C104.266,51.508 104.156,51.321 103.607,51.321C103.216,51.321 102.667,51.587 102.213,51.995L102.213,57.761L100.223,57.761L100.223,52.543C100.223,51.54 100.082,51.305 99.501,51.305C99.109,51.305 98.577,51.508 98.122,51.917L98.122,57.761L96.069,57.761L96.069,52.167C96.069,51.007 95.991,50.505 95.772,50.114L97.668,49.597C97.809,49.816 97.872,50.004 97.95,50.412C98.499,49.878 99.172,49.597 99.909,49.597C100.567,49.597 101.116,49.816 101.539,50.255C101.648,50.365 101.758,50.505 101.853,50.647C102.589,49.894 103.247,49.597 104.125,49.597C104.751,49.597 105.347,49.785 105.708,50.098C106.162,50.49 106.303,50.961 106.303,52.057L106.303,57.761L104.266,57.761Z" style="fill:white;fill-rule:nonzero;"/>
        <path d="M112.67,57.761L112.67,52.543C112.67,51.634 112.513,51.368 111.964,51.368C111.541,51.368 110.992,51.65 110.507,52.088L110.507,57.761L108.407,57.761L108.407,51.948C108.407,51.258 108.312,50.6 108.125,50.067L109.989,49.534C110.178,49.863 110.287,50.208 110.287,50.537C110.601,50.318 110.867,50.129 111.212,49.942C111.635,49.722 112.184,49.597 112.653,49.597C113.547,49.597 114.33,50.067 114.581,50.756C114.691,51.054 114.738,51.399 114.738,51.9L114.738,57.761L112.67,57.761Z" style="fill:white;fill-rule:nonzero;"/>
        <path d="M116.841,57.761L116.841,49.878L118.941,49.549L118.941,57.761L116.841,57.761ZM117.891,48.829C117.186,48.829 116.605,48.25 116.605,47.528C116.605,46.807 117.201,46.227 117.922,46.227C118.627,46.227 119.191,46.807 119.191,47.528C119.191,48.25 118.611,48.829 117.891,48.829Z" style="fill:white;fill-rule:nonzero;"/>
        <path d="M129.976,48.641L126.512,48.641L126.512,51.132L129.285,51.132L129.285,52.92L126.512,52.92L126.512,57.761L124.318,57.761L124.318,46.87L130.227,46.87L129.976,48.641Z" style="fill:white;fill-rule:nonzero;"/>
        <path d="M136.121,57.981C135.855,57.793 135.635,57.526 135.494,57.197C134.977,57.699 134.225,57.965 133.379,57.965C132.25,57.965 131.278,57.432 131.011,56.665C130.886,56.304 130.84,55.88 130.84,55.066L130.84,49.926L132.908,49.534L132.908,54.69C132.908,55.411 132.971,55.787 133.08,56.006C133.19,56.225 133.504,56.382 133.816,56.382C134.334,56.382 134.961,56.006 135.117,55.615L135.117,49.973L137.123,49.549L137.123,55.677C137.123,56.21 137.296,56.758 137.609,57.134L136.121,57.981Z" style="fill:white;fill-rule:nonzero;"/>
        <path d="M143.332,57.761L143.332,52.543C143.332,51.634 143.176,51.368 142.627,51.368C142.204,51.368 141.655,51.65 141.17,52.088L141.17,57.761L139.07,57.761L139.07,51.948C139.07,51.258 138.976,50.6 138.787,50.067L140.652,49.534C140.841,49.863 140.95,50.208 140.95,50.537C141.264,50.318 141.53,50.129 141.875,49.942C142.298,49.722 142.847,49.597 143.316,49.597C144.21,49.597 144.993,50.067 145.244,50.756C145.354,51.054 145.4,51.399 145.4,51.9L145.4,57.761L143.332,57.761Z" style="fill:white;fill-rule:nonzero;"/>
        <path d="M151.859,51.853C151.469,51.508 151.092,51.337 150.716,51.337C149.775,51.337 149.368,52.12 149.368,53.906C149.368,55.63 149.729,56.194 150.826,56.194C151.217,56.194 151.656,55.928 151.859,55.677L151.859,51.853ZM152.33,57.761C152.268,57.636 152.236,57.51 152.205,57.292C151.688,57.746 151.076,57.965 150.355,57.965C148.318,57.965 147.033,56.382 147.033,53.89C147.033,51.383 148.428,49.66 150.465,49.66C151.045,49.66 151.5,49.8 151.891,50.114C151.859,49.942 151.828,49.393 151.828,48.923L151.828,46.165L153.912,46.494L153.912,54.831C153.912,56.805 154.069,57.448 154.211,57.761L152.33,57.761Z" style="fill:white;fill-rule:nonzero;"/>
    </g>
</svg>
